<mxfile host="Electron" agent="Mozilla/5.0 (X11; Linux x86_64) AppleWebKit/537.36 (KHTML, like Gecko) draw.io/24.7.8 Chrome/128.0.6613.36 Electron/32.0.1 Safari/537.36" version="24.7.8" pages="5">
  <diagram name="Classes" id="BNUkrQ4gxxTXArtku14U">
    <mxGraphModel dx="1683" dy="1611" grid="1" gridSize="10" guides="1" tooltips="1" connect="1" arrows="1" fold="1" page="1" pageScale="1" pageWidth="850" pageHeight="1100" math="0" shadow="0">
      <root>
        <mxCell id="0" />
        <mxCell id="1" parent="0" />
        <mxCell id="EHABAdEqgiZOR1MLIZCe-3" value="&lt;b&gt;DRF Audit Trail - Class&lt;/b&gt;&lt;div&gt;&lt;b&gt;RequestLoginAuditEventMiddleware&lt;/b&gt;&lt;b&gt;&lt;br&gt;&lt;/b&gt;&lt;/div&gt;" style="shape=umlFrame;whiteSpace=wrap;html=1;pointerEvents=0;recursiveResize=0;container=1;collapsible=0;width=270;height=40;shadow=0;fillColor=#76608a;strokeColor=#432D57;fontColor=#ffffff;" parent="1" vertex="1">
          <mxGeometry x="-640" y="-990" width="470" height="390" as="geometry" />
        </mxCell>
        <mxCell id="eA1qzpGKKkhgZGazGJqd-11" style="rounded=0;orthogonalLoop=1;jettySize=auto;html=1;endArrow=block;endFill=0;shadow=0;entryX=0.5;entryY=1;entryDx=0;entryDy=0;exitX=0.5;exitY=0;exitDx=0;exitDy=0;fillColor=#76608a;strokeColor=#432D57;" parent="EHABAdEqgiZOR1MLIZCe-3" source="NPW25lGTGLOJ43XzTEiW-12" target="NPW25lGTGLOJ43XzTEiW-4" edge="1">
          <mxGeometry relative="1" as="geometry">
            <mxPoint x="230" y="111.89655172413791" as="sourcePoint" />
            <mxPoint x="170" y="150" as="targetPoint" />
          </mxGeometry>
        </mxCell>
        <mxCell id="NPW25lGTGLOJ43XzTEiW-9" style="rounded=0;orthogonalLoop=1;jettySize=auto;html=1;dashed=1;endArrow=none;endFill=0;fillColor=#76608a;strokeColor=#432D57;" parent="EHABAdEqgiZOR1MLIZCe-3" source="NPW25lGTGLOJ43XzTEiW-4" target="N1MeY7gcO140Hl4LK4jL-1" edge="1">
          <mxGeometry relative="1" as="geometry" />
        </mxCell>
        <mxCell id="NPW25lGTGLOJ43XzTEiW-4" value="&lt;b&gt;MiddlewareMixin&lt;/b&gt;" style="swimlane;fontStyle=1;align=center;verticalAlign=top;childLayout=stackLayout;horizontal=1;startSize=26;horizontalStack=0;resizeParent=1;resizeParentMax=0;resizeLast=0;collapsible=1;marginBottom=0;whiteSpace=wrap;html=1;fillColor=#76608a;strokeColor=#432D57;fontColor=#ffffff;" parent="EHABAdEqgiZOR1MLIZCe-3" vertex="1">
          <mxGeometry x="155" y="100" width="160" height="34" as="geometry" />
        </mxCell>
        <mxCell id="NPW25lGTGLOJ43XzTEiW-6" value="" style="line;strokeWidth=1;fillColor=#76608a;align=left;verticalAlign=middle;spacingTop=-1;spacingLeft=3;spacingRight=3;rotatable=0;labelPosition=right;points=[];portConstraint=eastwest;strokeColor=#432D57;fontColor=#ffffff;" parent="NPW25lGTGLOJ43XzTEiW-4" vertex="1">
          <mxGeometry y="26" width="160" height="8" as="geometry" />
        </mxCell>
        <mxCell id="N1MeY7gcO140Hl4LK4jL-1" value="Django base class" style="shape=note2;boundedLbl=1;whiteSpace=wrap;html=1;size=25;verticalAlign=top;align=center;fillColor=#76608a;strokeColor=#432D57;fontColor=#ffffff;" parent="EHABAdEqgiZOR1MLIZCe-3" vertex="1">
          <mxGeometry x="330" y="20" width="120" height="60" as="geometry" />
        </mxCell>
        <mxCell id="NPW25lGTGLOJ43XzTEiW-12" value="RequestLoginAuditEventMiddleware" style="swimlane;fontStyle=1;align=center;verticalAlign=top;childLayout=stackLayout;horizontal=1;startSize=26;horizontalStack=0;resizeParent=1;resizeParentMax=0;resizeLast=0;collapsible=1;marginBottom=0;whiteSpace=wrap;html=1;fillColor=#76608a;strokeColor=#432D57;fontColor=#ffffff;" parent="EHABAdEqgiZOR1MLIZCe-3" vertex="1">
          <mxGeometry x="20" y="180" width="430" height="190" as="geometry" />
        </mxCell>
        <mxCell id="NPW25lGTGLOJ43XzTEiW-14" value="" style="line;strokeWidth=1;fillColor=#76608a;align=left;verticalAlign=middle;spacingTop=-1;spacingLeft=3;spacingRight=3;rotatable=0;labelPosition=right;points=[];portConstraint=eastwest;strokeColor=#432D57;fontColor=#ffffff;" parent="NPW25lGTGLOJ43XzTEiW-12" vertex="1">
          <mxGeometry y="26" width="430" height="8" as="geometry" />
        </mxCell>
        <mxCell id="NPW25lGTGLOJ43XzTEiW-15" value="+ process_request(request: HttpRequest): HttpResponse" style="text;strokeColor=#432D57;fillColor=#76608a;align=left;verticalAlign=top;spacingLeft=4;spacingRight=4;overflow=hidden;rotatable=0;points=[[0,0.5],[1,0.5]];portConstraint=eastwest;whiteSpace=wrap;html=1;fontColor=#ffffff;" parent="NPW25lGTGLOJ43XzTEiW-12" vertex="1">
          <mxGeometry y="34" width="430" height="26" as="geometry" />
        </mxCell>
        <mxCell id="NPW25lGTGLOJ43XzTEiW-52" value="+ process_exception(request: HttpRequest, exception: BaseException): None" style="text;strokeColor=#432D57;fillColor=#76608a;align=left;verticalAlign=top;spacingLeft=4;spacingRight=4;overflow=hidden;rotatable=0;points=[[0,0.5],[1,0.5]];portConstraint=eastwest;whiteSpace=wrap;html=1;fontColor=#ffffff;" parent="NPW25lGTGLOJ43XzTEiW-12" vertex="1">
          <mxGeometry y="60" width="430" height="26" as="geometry" />
        </mxCell>
        <mxCell id="8ymKqf28H6TakaxSmUh3-1" value="# start_request(request: HttpRequest): bool" style="text;strokeColor=#432D57;fillColor=#76608a;align=left;verticalAlign=top;spacingLeft=4;spacingRight=4;overflow=hidden;rotatable=0;points=[[0,0.5],[1,0.5]];portConstraint=eastwest;whiteSpace=wrap;html=1;fontColor=#ffffff;" vertex="1" parent="NPW25lGTGLOJ43XzTEiW-12">
          <mxGeometry y="86" width="430" height="26" as="geometry" />
        </mxCell>
        <mxCell id="NPW25lGTGLOJ43XzTEiW-54" value="# create_instance(request: HttpRequest, response: HttpResponse): None" style="text;strokeColor=#432D57;fillColor=#76608a;align=left;verticalAlign=top;spacingLeft=4;spacingRight=4;overflow=hidden;rotatable=0;points=[[0,0.5],[1,0.5]];portConstraint=eastwest;whiteSpace=wrap;html=1;fontColor=#ffffff;" parent="NPW25lGTGLOJ43XzTEiW-12" vertex="1">
          <mxGeometry y="112" width="430" height="26" as="geometry" />
        </mxCell>
        <mxCell id="NPW25lGTGLOJ43XzTEiW-56" value="# is_auth_url(request: HttpRequest): bool" style="text;strokeColor=#432D57;fillColor=#76608a;align=left;verticalAlign=top;spacingLeft=4;spacingRight=4;overflow=hidden;rotatable=0;points=[[0,0.5],[1,0.5]];portConstraint=eastwest;whiteSpace=wrap;html=1;fontColor=#ffffff;" parent="NPW25lGTGLOJ43XzTEiW-12" vertex="1">
          <mxGeometry y="138" width="430" height="26" as="geometry" />
        </mxCell>
        <mxCell id="NPW25lGTGLOJ43XzTEiW-57" value="# is_request_audit_enabled(request: HttpRequest): bool" style="text;strokeColor=#432D57;fillColor=#76608a;align=left;verticalAlign=top;spacingLeft=4;spacingRight=4;overflow=hidden;rotatable=0;points=[[0,0.5],[1,0.5]];portConstraint=eastwest;whiteSpace=wrap;html=1;fontColor=#ffffff;" parent="NPW25lGTGLOJ43XzTEiW-12" vertex="1">
          <mxGeometry y="164" width="430" height="26" as="geometry" />
        </mxCell>
      </root>
    </mxGraphModel>
  </diagram>
  <diagram id="JHTwjO6HbVxCdvPvqPvJ" name="DER">
    <mxGraphModel dx="2290" dy="1405" grid="1" gridSize="10" guides="1" tooltips="1" connect="1" arrows="1" fold="1" page="1" pageScale="1" pageWidth="850" pageHeight="1100" math="0" shadow="0">
      <root>
        <mxCell id="0" />
        <mxCell id="1" parent="0" />
        <mxCell id="_B_bOpre39auC-GVk16h-1" value="DRF Audit Trail - DER" style="shape=umlFrame;whiteSpace=wrap;html=1;pointerEvents=0;recursiveResize=0;container=1;collapsible=0;width=160;swimlaneLine=1;fontStyle=1;fillColor=#76608a;fontColor=#ffffff;strokeColor=#432D57;" parent="1" vertex="1">
          <mxGeometry x="25" y="30" width="800" height="760" as="geometry" />
        </mxCell>
        <mxCell id="0nlEcby6L9T7chjrlaOP-10" value="RequestAuditEvent" style="shape=table;startSize=30;container=1;collapsible=1;childLayout=tableLayout;fixedRows=1;rowLines=0;align=center;resizeLast=1;html=1;swimlaneLine=1;fontStyle=1;fillColor=#76608a;fontColor=#ffffff;strokeColor=#432D57;" parent="_B_bOpre39auC-GVk16h-1" vertex="1">
          <mxGeometry x="40" y="260" width="180" height="480" as="geometry" />
        </mxCell>
        <mxCell id="0nlEcby6L9T7chjrlaOP-11" value="" style="shape=tableRow;horizontal=0;startSize=0;swimlaneHead=0;swimlaneBody=0;collapsible=0;dropTarget=0;points=[[0,0.5],[1,0.5]];portConstraint=eastwest;top=0;left=0;right=0;bottom=1;swimlaneLine=1;fillColor=#76608a;fontColor=#ffffff;strokeColor=#432D57;" parent="0nlEcby6L9T7chjrlaOP-10" vertex="1">
          <mxGeometry y="30" width="180" height="30" as="geometry" />
        </mxCell>
        <mxCell id="0nlEcby6L9T7chjrlaOP-12" value="&lt;b&gt;PK&lt;/b&gt;" style="shape=partialRectangle;connectable=0;top=0;left=0;bottom=0;right=0;overflow=hidden;whiteSpace=wrap;html=1;swimlaneLine=1;fillColor=#76608a;fontColor=#ffffff;strokeColor=#432D57;" parent="0nlEcby6L9T7chjrlaOP-11" vertex="1">
          <mxGeometry width="30" height="30" as="geometry">
            <mxRectangle width="30" height="30" as="alternateBounds" />
          </mxGeometry>
        </mxCell>
        <mxCell id="0nlEcby6L9T7chjrlaOP-13" value="id - int" style="shape=partialRectangle;connectable=0;top=0;left=0;bottom=0;right=0;align=left;spacingLeft=6;overflow=hidden;whiteSpace=wrap;html=1;swimlaneLine=1;fillColor=#76608a;fontColor=#ffffff;strokeColor=#432D57;" parent="0nlEcby6L9T7chjrlaOP-11" vertex="1">
          <mxGeometry x="30" width="150" height="30" as="geometry">
            <mxRectangle width="150" height="30" as="alternateBounds" />
          </mxGeometry>
        </mxCell>
        <mxCell id="0nlEcby6L9T7chjrlaOP-17" value="" style="shape=tableRow;horizontal=0;startSize=0;swimlaneHead=0;swimlaneBody=0;collapsible=0;dropTarget=0;points=[[0,0.5],[1,0.5]];portConstraint=eastwest;top=0;left=0;right=0;bottom=0;swimlaneLine=1;fillColor=#76608a;fontColor=#ffffff;strokeColor=#432D57;" parent="0nlEcby6L9T7chjrlaOP-10" vertex="1">
          <mxGeometry y="60" width="180" height="30" as="geometry" />
        </mxCell>
        <mxCell id="0nlEcby6L9T7chjrlaOP-18" value="" style="shape=partialRectangle;connectable=0;top=0;left=0;bottom=0;right=0;editable=1;overflow=hidden;whiteSpace=wrap;html=1;swimlaneLine=1;fillColor=#76608a;fontColor=#ffffff;strokeColor=#432D57;" parent="0nlEcby6L9T7chjrlaOP-17" vertex="1">
          <mxGeometry width="30" height="30" as="geometry">
            <mxRectangle width="30" height="30" as="alternateBounds" />
          </mxGeometry>
        </mxCell>
        <mxCell id="0nlEcby6L9T7chjrlaOP-19" value="extra_information - text" style="shape=partialRectangle;connectable=0;top=0;left=0;bottom=0;right=0;align=left;spacingLeft=6;overflow=hidden;whiteSpace=wrap;html=1;swimlaneLine=1;fillColor=#76608a;fontColor=#ffffff;strokeColor=#432D57;" parent="0nlEcby6L9T7chjrlaOP-17" vertex="1">
          <mxGeometry x="30" width="150" height="30" as="geometry">
            <mxRectangle width="150" height="30" as="alternateBounds" />
          </mxGeometry>
        </mxCell>
        <mxCell id="0nlEcby6L9T7chjrlaOP-20" value="" style="shape=tableRow;horizontal=0;startSize=0;swimlaneHead=0;swimlaneBody=0;collapsible=0;dropTarget=0;points=[[0,0.5],[1,0.5]];portConstraint=eastwest;top=0;left=0;right=0;bottom=0;swimlaneLine=1;fillColor=#76608a;fontColor=#ffffff;strokeColor=#432D57;" parent="0nlEcby6L9T7chjrlaOP-10" vertex="1">
          <mxGeometry y="90" width="180" height="30" as="geometry" />
        </mxCell>
        <mxCell id="0nlEcby6L9T7chjrlaOP-21" value="" style="shape=partialRectangle;connectable=0;top=0;left=0;bottom=0;right=0;editable=1;overflow=hidden;whiteSpace=wrap;html=1;swimlaneLine=1;fillColor=#76608a;fontColor=#ffffff;strokeColor=#432D57;" parent="0nlEcby6L9T7chjrlaOP-20" vertex="1">
          <mxGeometry width="30" height="30" as="geometry">
            <mxRectangle width="30" height="30" as="alternateBounds" />
          </mxGeometry>
        </mxCell>
        <mxCell id="0nlEcby6L9T7chjrlaOP-22" value="datetime - datetime" style="shape=partialRectangle;connectable=0;top=0;left=0;bottom=0;right=0;align=left;spacingLeft=6;overflow=hidden;whiteSpace=wrap;html=1;swimlaneLine=1;fillColor=#76608a;fontColor=#ffffff;strokeColor=#432D57;" parent="0nlEcby6L9T7chjrlaOP-20" vertex="1">
          <mxGeometry x="30" width="150" height="30" as="geometry">
            <mxRectangle width="150" height="30" as="alternateBounds" />
          </mxGeometry>
        </mxCell>
        <mxCell id="0nlEcby6L9T7chjrlaOP-26" value="" style="shape=tableRow;horizontal=0;startSize=0;swimlaneHead=0;swimlaneBody=0;collapsible=0;dropTarget=0;points=[[0,0.5],[1,0.5]];portConstraint=eastwest;top=0;left=0;right=0;bottom=0;swimlaneLine=1;fillColor=#76608a;fontColor=#ffffff;strokeColor=#432D57;" parent="0nlEcby6L9T7chjrlaOP-10" vertex="1">
          <mxGeometry y="120" width="180" height="30" as="geometry" />
        </mxCell>
        <mxCell id="0nlEcby6L9T7chjrlaOP-27" value="" style="shape=partialRectangle;connectable=0;top=0;left=0;bottom=0;right=0;editable=1;overflow=hidden;whiteSpace=wrap;html=1;swimlaneLine=1;fillColor=#76608a;fontColor=#ffffff;strokeColor=#432D57;" parent="0nlEcby6L9T7chjrlaOP-26" vertex="1">
          <mxGeometry width="30" height="30" as="geometry">
            <mxRectangle width="30" height="30" as="alternateBounds" />
          </mxGeometry>
        </mxCell>
        <mxCell id="0nlEcby6L9T7chjrlaOP-28" value="user - char" style="shape=partialRectangle;connectable=0;top=0;left=0;bottom=0;right=0;align=left;spacingLeft=6;overflow=hidden;whiteSpace=wrap;html=1;swimlaneLine=1;fillColor=#76608a;fontColor=#ffffff;strokeColor=#432D57;" parent="0nlEcby6L9T7chjrlaOP-26" vertex="1">
          <mxGeometry x="30" width="150" height="30" as="geometry">
            <mxRectangle width="150" height="30" as="alternateBounds" />
          </mxGeometry>
        </mxCell>
        <mxCell id="0nlEcby6L9T7chjrlaOP-29" value="" style="shape=tableRow;horizontal=0;startSize=0;swimlaneHead=0;swimlaneBody=0;collapsible=0;dropTarget=0;points=[[0,0.5],[1,0.5]];portConstraint=eastwest;top=0;left=0;right=0;bottom=0;swimlaneLine=1;fillColor=#76608a;fontColor=#ffffff;strokeColor=#432D57;" parent="0nlEcby6L9T7chjrlaOP-10" vertex="1">
          <mxGeometry y="150" width="180" height="30" as="geometry" />
        </mxCell>
        <mxCell id="0nlEcby6L9T7chjrlaOP-30" value="" style="shape=partialRectangle;connectable=0;top=0;left=0;bottom=0;right=0;editable=1;overflow=hidden;whiteSpace=wrap;html=1;swimlaneLine=1;fillColor=#76608a;fontColor=#ffffff;strokeColor=#432D57;" parent="0nlEcby6L9T7chjrlaOP-29" vertex="1">
          <mxGeometry width="30" height="30" as="geometry">
            <mxRectangle width="30" height="30" as="alternateBounds" />
          </mxGeometry>
        </mxCell>
        <mxCell id="0nlEcby6L9T7chjrlaOP-31" value="ip_addresses - char" style="shape=partialRectangle;connectable=0;top=0;left=0;bottom=0;right=0;align=left;spacingLeft=6;overflow=hidden;whiteSpace=wrap;html=1;swimlaneLine=1;fillColor=#76608a;fontColor=#ffffff;strokeColor=#432D57;" parent="0nlEcby6L9T7chjrlaOP-29" vertex="1">
          <mxGeometry x="30" width="150" height="30" as="geometry">
            <mxRectangle width="150" height="30" as="alternateBounds" />
          </mxGeometry>
        </mxCell>
        <mxCell id="0nlEcby6L9T7chjrlaOP-32" value="" style="shape=tableRow;horizontal=0;startSize=0;swimlaneHead=0;swimlaneBody=0;collapsible=0;dropTarget=0;points=[[0,0.5],[1,0.5]];portConstraint=eastwest;top=0;left=0;right=0;bottom=0;swimlaneLine=1;fillColor=#76608a;fontColor=#ffffff;strokeColor=#432D57;" parent="0nlEcby6L9T7chjrlaOP-10" vertex="1">
          <mxGeometry y="180" width="180" height="30" as="geometry" />
        </mxCell>
        <mxCell id="0nlEcby6L9T7chjrlaOP-33" value="" style="shape=partialRectangle;connectable=0;top=0;left=0;bottom=0;right=0;editable=1;overflow=hidden;whiteSpace=wrap;html=1;swimlaneLine=1;fillColor=#76608a;fontColor=#ffffff;strokeColor=#432D57;" parent="0nlEcby6L9T7chjrlaOP-32" vertex="1">
          <mxGeometry width="30" height="30" as="geometry">
            <mxRectangle width="30" height="30" as="alternateBounds" />
          </mxGeometry>
        </mxCell>
        <mxCell id="0nlEcby6L9T7chjrlaOP-34" value="method - char" style="shape=partialRectangle;connectable=0;top=0;left=0;bottom=0;right=0;align=left;spacingLeft=6;overflow=hidden;whiteSpace=wrap;html=1;swimlaneLine=1;fillColor=#76608a;fontColor=#ffffff;strokeColor=#432D57;" parent="0nlEcby6L9T7chjrlaOP-32" vertex="1">
          <mxGeometry x="30" width="150" height="30" as="geometry">
            <mxRectangle width="150" height="30" as="alternateBounds" />
          </mxGeometry>
        </mxCell>
        <mxCell id="1fB6QBnC89j-sLLrV6No-23" value="" style="shape=tableRow;horizontal=0;startSize=0;swimlaneHead=0;swimlaneBody=0;collapsible=0;dropTarget=0;points=[[0,0.5],[1,0.5]];portConstraint=eastwest;top=0;left=0;right=0;bottom=0;swimlaneLine=1;fillColor=#76608a;fontColor=#ffffff;strokeColor=#432D57;" parent="0nlEcby6L9T7chjrlaOP-10" vertex="1">
          <mxGeometry y="210" width="180" height="30" as="geometry" />
        </mxCell>
        <mxCell id="1fB6QBnC89j-sLLrV6No-24" value="" style="shape=partialRectangle;connectable=0;top=0;left=0;bottom=0;right=0;editable=1;overflow=hidden;whiteSpace=wrap;html=1;swimlaneLine=1;fillColor=#76608a;fontColor=#ffffff;strokeColor=#432D57;" parent="1fB6QBnC89j-sLLrV6No-23" vertex="1">
          <mxGeometry width="30" height="30" as="geometry">
            <mxRectangle width="30" height="30" as="alternateBounds" />
          </mxGeometry>
        </mxCell>
        <mxCell id="1fB6QBnC89j-sLLrV6No-25" value="url - char" style="shape=partialRectangle;connectable=0;top=0;left=0;bottom=0;right=0;align=left;spacingLeft=6;overflow=hidden;whiteSpace=wrap;html=1;swimlaneLine=1;fillColor=#76608a;fontColor=#ffffff;strokeColor=#432D57;" parent="1fB6QBnC89j-sLLrV6No-23" vertex="1">
          <mxGeometry x="30" width="150" height="30" as="geometry">
            <mxRectangle width="150" height="30" as="alternateBounds" />
          </mxGeometry>
        </mxCell>
        <mxCell id="1fB6QBnC89j-sLLrV6No-26" value="" style="shape=tableRow;horizontal=0;startSize=0;swimlaneHead=0;swimlaneBody=0;collapsible=0;dropTarget=0;points=[[0,0.5],[1,0.5]];portConstraint=eastwest;top=0;left=0;right=0;bottom=0;swimlaneLine=1;fillColor=#76608a;fontColor=#ffffff;strokeColor=#432D57;" parent="0nlEcby6L9T7chjrlaOP-10" vertex="1">
          <mxGeometry y="240" width="180" height="30" as="geometry" />
        </mxCell>
        <mxCell id="1fB6QBnC89j-sLLrV6No-27" value="" style="shape=partialRectangle;connectable=0;top=0;left=0;bottom=0;right=0;editable=1;overflow=hidden;whiteSpace=wrap;html=1;swimlaneLine=1;fillColor=#76608a;fontColor=#ffffff;strokeColor=#432D57;" parent="1fB6QBnC89j-sLLrV6No-26" vertex="1">
          <mxGeometry width="30" height="30" as="geometry">
            <mxRectangle width="30" height="30" as="alternateBounds" />
          </mxGeometry>
        </mxCell>
        <mxCell id="1fB6QBnC89j-sLLrV6No-28" value="query_params - char" style="shape=partialRectangle;connectable=0;top=0;left=0;bottom=0;right=0;align=left;spacingLeft=6;overflow=hidden;whiteSpace=wrap;html=1;swimlaneLine=1;fillColor=#76608a;fontColor=#ffffff;strokeColor=#432D57;" parent="1fB6QBnC89j-sLLrV6No-26" vertex="1">
          <mxGeometry x="30" width="150" height="30" as="geometry">
            <mxRectangle width="150" height="30" as="alternateBounds" />
          </mxGeometry>
        </mxCell>
        <mxCell id="1fB6QBnC89j-sLLrV6No-29" value="" style="shape=tableRow;horizontal=0;startSize=0;swimlaneHead=0;swimlaneBody=0;collapsible=0;dropTarget=0;points=[[0,0.5],[1,0.5]];portConstraint=eastwest;top=0;left=0;right=0;bottom=0;swimlaneLine=1;fillColor=#76608a;fontColor=#ffffff;strokeColor=#432D57;" parent="0nlEcby6L9T7chjrlaOP-10" vertex="1">
          <mxGeometry y="270" width="180" height="30" as="geometry" />
        </mxCell>
        <mxCell id="1fB6QBnC89j-sLLrV6No-30" value="" style="shape=partialRectangle;connectable=0;top=0;left=0;bottom=0;right=0;editable=1;overflow=hidden;whiteSpace=wrap;html=1;swimlaneLine=1;fillColor=#76608a;fontColor=#ffffff;strokeColor=#432D57;" parent="1fB6QBnC89j-sLLrV6No-29" vertex="1">
          <mxGeometry width="30" height="30" as="geometry">
            <mxRectangle width="30" height="30" as="alternateBounds" />
          </mxGeometry>
        </mxCell>
        <mxCell id="1fB6QBnC89j-sLLrV6No-31" value="request_type - char" style="shape=partialRectangle;connectable=0;top=0;left=0;bottom=0;right=0;align=left;spacingLeft=6;overflow=hidden;whiteSpace=wrap;html=1;swimlaneLine=1;fillColor=#76608a;fontColor=#ffffff;strokeColor=#432D57;" parent="1fB6QBnC89j-sLLrV6No-29" vertex="1">
          <mxGeometry x="30" width="150" height="30" as="geometry">
            <mxRectangle width="150" height="30" as="alternateBounds" />
          </mxGeometry>
        </mxCell>
        <mxCell id="1fB6QBnC89j-sLLrV6No-32" value="" style="shape=tableRow;horizontal=0;startSize=0;swimlaneHead=0;swimlaneBody=0;collapsible=0;dropTarget=0;points=[[0,0.5],[1,0.5]];portConstraint=eastwest;top=0;left=0;right=0;bottom=0;swimlaneLine=1;fillColor=#76608a;fontColor=#ffffff;strokeColor=#432D57;" parent="0nlEcby6L9T7chjrlaOP-10" vertex="1">
          <mxGeometry y="300" width="180" height="30" as="geometry" />
        </mxCell>
        <mxCell id="1fB6QBnC89j-sLLrV6No-33" value="" style="shape=partialRectangle;connectable=0;top=0;left=0;bottom=0;right=0;editable=1;overflow=hidden;whiteSpace=wrap;html=1;swimlaneLine=1;fillColor=#76608a;fontColor=#ffffff;strokeColor=#432D57;" parent="1fB6QBnC89j-sLLrV6No-32" vertex="1">
          <mxGeometry width="30" height="30" as="geometry">
            <mxRectangle width="30" height="30" as="alternateBounds" />
          </mxGeometry>
        </mxCell>
        <mxCell id="1fB6QBnC89j-sLLrV6No-34" value="status_code - int" style="shape=partialRectangle;connectable=0;top=0;left=0;bottom=0;right=0;align=left;spacingLeft=6;overflow=hidden;whiteSpace=wrap;html=1;swimlaneLine=1;fillColor=#76608a;fontColor=#ffffff;strokeColor=#432D57;" parent="1fB6QBnC89j-sLLrV6No-32" vertex="1">
          <mxGeometry x="30" width="150" height="30" as="geometry">
            <mxRectangle width="150" height="30" as="alternateBounds" />
          </mxGeometry>
        </mxCell>
        <mxCell id="1fB6QBnC89j-sLLrV6No-35" value="" style="shape=tableRow;horizontal=0;startSize=0;swimlaneHead=0;swimlaneBody=0;collapsible=0;dropTarget=0;points=[[0,0.5],[1,0.5]];portConstraint=eastwest;top=0;left=0;right=0;bottom=0;swimlaneLine=1;fillColor=#76608a;fontColor=#ffffff;strokeColor=#432D57;" parent="0nlEcby6L9T7chjrlaOP-10" vertex="1">
          <mxGeometry y="330" width="180" height="30" as="geometry" />
        </mxCell>
        <mxCell id="1fB6QBnC89j-sLLrV6No-36" value="" style="shape=partialRectangle;connectable=0;top=0;left=0;bottom=0;right=0;editable=1;overflow=hidden;whiteSpace=wrap;html=1;swimlaneLine=1;fillColor=#76608a;fontColor=#ffffff;strokeColor=#432D57;" parent="1fB6QBnC89j-sLLrV6No-35" vertex="1">
          <mxGeometry width="30" height="30" as="geometry">
            <mxRectangle width="30" height="30" as="alternateBounds" />
          </mxGeometry>
        </mxCell>
        <mxCell id="1fB6QBnC89j-sLLrV6No-37" value="response_time - float" style="shape=partialRectangle;connectable=0;top=0;left=0;bottom=0;right=0;align=left;spacingLeft=6;overflow=hidden;whiteSpace=wrap;html=1;swimlaneLine=1;fillColor=#76608a;fontColor=#ffffff;strokeColor=#432D57;" parent="1fB6QBnC89j-sLLrV6No-35" vertex="1">
          <mxGeometry x="30" width="150" height="30" as="geometry">
            <mxRectangle width="150" height="30" as="alternateBounds" />
          </mxGeometry>
        </mxCell>
        <mxCell id="_B_bOpre39auC-GVk16h-68" value="" style="shape=tableRow;horizontal=0;startSize=0;swimlaneHead=0;swimlaneBody=0;collapsible=0;dropTarget=0;points=[[0,0.5],[1,0.5]];portConstraint=eastwest;top=0;left=0;right=0;bottom=0;swimlaneLine=1;fillColor=#76608a;fontColor=#ffffff;strokeColor=#432D57;" parent="0nlEcby6L9T7chjrlaOP-10" vertex="1">
          <mxGeometry y="360" width="180" height="30" as="geometry" />
        </mxCell>
        <mxCell id="_B_bOpre39auC-GVk16h-69" value="" style="shape=partialRectangle;connectable=0;top=0;left=0;bottom=0;right=0;editable=1;overflow=hidden;whiteSpace=wrap;html=1;swimlaneLine=1;fillColor=#76608a;fontColor=#ffffff;strokeColor=#432D57;" parent="_B_bOpre39auC-GVk16h-68" vertex="1">
          <mxGeometry width="30" height="30" as="geometry">
            <mxRectangle width="30" height="30" as="alternateBounds" />
          </mxGeometry>
        </mxCell>
        <mxCell id="_B_bOpre39auC-GVk16h-70" value="response_size - int" style="shape=partialRectangle;connectable=0;top=0;left=0;bottom=0;right=0;align=left;spacingLeft=6;overflow=hidden;whiteSpace=wrap;html=1;swimlaneLine=1;fillColor=#76608a;fontColor=#ffffff;strokeColor=#432D57;" parent="_B_bOpre39auC-GVk16h-68" vertex="1">
          <mxGeometry x="30" width="150" height="30" as="geometry">
            <mxRectangle width="150" height="30" as="alternateBounds" />
          </mxGeometry>
        </mxCell>
        <mxCell id="1fB6QBnC89j-sLLrV6No-38" value="" style="shape=tableRow;horizontal=0;startSize=0;swimlaneHead=0;swimlaneBody=0;collapsible=0;dropTarget=0;points=[[0,0.5],[1,0.5]];portConstraint=eastwest;top=0;left=0;right=0;bottom=0;swimlaneLine=1;fillColor=#76608a;fontColor=#ffffff;strokeColor=#432D57;" parent="0nlEcby6L9T7chjrlaOP-10" vertex="1">
          <mxGeometry y="390" width="180" height="30" as="geometry" />
        </mxCell>
        <mxCell id="1fB6QBnC89j-sLLrV6No-39" value="" style="shape=partialRectangle;connectable=0;top=0;left=0;bottom=0;right=0;editable=1;overflow=hidden;whiteSpace=wrap;html=1;swimlaneLine=1;fillColor=#76608a;fontColor=#ffffff;strokeColor=#432D57;" parent="1fB6QBnC89j-sLLrV6No-38" vertex="1">
          <mxGeometry width="30" height="30" as="geometry">
            <mxRectangle width="30" height="30" as="alternateBounds" />
          </mxGeometry>
        </mxCell>
        <mxCell id="1fB6QBnC89j-sLLrV6No-40" value="error_type - char" style="shape=partialRectangle;connectable=0;top=0;left=0;bottom=0;right=0;align=left;spacingLeft=6;overflow=hidden;whiteSpace=wrap;html=1;swimlaneLine=1;fillColor=#76608a;fontColor=#ffffff;strokeColor=#432D57;" parent="1fB6QBnC89j-sLLrV6No-38" vertex="1">
          <mxGeometry x="30" width="150" height="30" as="geometry">
            <mxRectangle width="150" height="30" as="alternateBounds" />
          </mxGeometry>
        </mxCell>
        <mxCell id="1fB6QBnC89j-sLLrV6No-41" value="" style="shape=tableRow;horizontal=0;startSize=0;swimlaneHead=0;swimlaneBody=0;collapsible=0;dropTarget=0;points=[[0,0.5],[1,0.5]];portConstraint=eastwest;top=0;left=0;right=0;bottom=0;swimlaneLine=1;fillColor=#76608a;fontColor=#ffffff;strokeColor=#432D57;" parent="0nlEcby6L9T7chjrlaOP-10" vertex="1">
          <mxGeometry y="420" width="180" height="30" as="geometry" />
        </mxCell>
        <mxCell id="1fB6QBnC89j-sLLrV6No-42" value="" style="shape=partialRectangle;connectable=0;top=0;left=0;bottom=0;right=0;editable=1;overflow=hidden;whiteSpace=wrap;html=1;swimlaneLine=1;fillColor=#76608a;fontColor=#ffffff;strokeColor=#432D57;" parent="1fB6QBnC89j-sLLrV6No-41" vertex="1">
          <mxGeometry width="30" height="30" as="geometry">
            <mxRectangle width="30" height="30" as="alternateBounds" />
          </mxGeometry>
        </mxCell>
        <mxCell id="1fB6QBnC89j-sLLrV6No-43" value="error_message - text" style="shape=partialRectangle;connectable=0;top=0;left=0;bottom=0;right=0;align=left;spacingLeft=6;overflow=hidden;whiteSpace=wrap;html=1;swimlaneLine=1;fillColor=#76608a;fontColor=#ffffff;strokeColor=#432D57;" parent="1fB6QBnC89j-sLLrV6No-41" vertex="1">
          <mxGeometry x="30" width="150" height="30" as="geometry">
            <mxRectangle width="150" height="30" as="alternateBounds" />
          </mxGeometry>
        </mxCell>
        <mxCell id="1fB6QBnC89j-sLLrV6No-44" value="" style="shape=tableRow;horizontal=0;startSize=0;swimlaneHead=0;swimlaneBody=0;collapsible=0;dropTarget=0;points=[[0,0.5],[1,0.5]];portConstraint=eastwest;top=0;left=0;right=0;bottom=0;swimlaneLine=1;fillColor=#76608a;fontColor=#ffffff;strokeColor=#432D57;" parent="0nlEcby6L9T7chjrlaOP-10" vertex="1">
          <mxGeometry y="450" width="180" height="30" as="geometry" />
        </mxCell>
        <mxCell id="1fB6QBnC89j-sLLrV6No-45" value="" style="shape=partialRectangle;connectable=0;top=0;left=0;bottom=0;right=0;editable=1;overflow=hidden;whiteSpace=wrap;html=1;swimlaneLine=1;fillColor=#76608a;fontColor=#ffffff;strokeColor=#432D57;" parent="1fB6QBnC89j-sLLrV6No-44" vertex="1">
          <mxGeometry width="30" height="30" as="geometry">
            <mxRectangle width="30" height="30" as="alternateBounds" />
          </mxGeometry>
        </mxCell>
        <mxCell id="1fB6QBnC89j-sLLrV6No-46" value="error_stacktrace - text" style="shape=partialRectangle;connectable=0;top=0;left=0;bottom=0;right=0;align=left;spacingLeft=6;overflow=hidden;whiteSpace=wrap;html=1;swimlaneLine=1;fillColor=#76608a;fontColor=#ffffff;strokeColor=#432D57;" parent="1fB6QBnC89j-sLLrV6No-44" vertex="1">
          <mxGeometry x="30" width="150" height="30" as="geometry">
            <mxRectangle width="150" height="30" as="alternateBounds" />
          </mxGeometry>
        </mxCell>
        <mxCell id="bzp6KQlfHaJFWQhwAEtc-1" value="LoginAuditEvent" style="shape=table;startSize=30;container=1;collapsible=1;childLayout=tableLayout;fixedRows=1;rowLines=0;align=center;resizeLast=1;html=1;swimlaneLine=1;fontStyle=1;swimlaneFillColor=none;fillStyle=auto;fillColor=#76608a;fontColor=#ffffff;strokeColor=#432D57;" parent="_B_bOpre39auC-GVk16h-1" vertex="1">
          <mxGeometry x="40" y="50" width="180" height="180" as="geometry" />
        </mxCell>
        <mxCell id="bzp6KQlfHaJFWQhwAEtc-2" value="" style="shape=tableRow;horizontal=0;startSize=0;swimlaneHead=0;swimlaneBody=0;collapsible=0;dropTarget=0;points=[[0,0.5],[1,0.5]];portConstraint=eastwest;top=0;left=0;right=0;bottom=1;swimlaneLine=1;fillColor=#76608a;fontColor=#ffffff;strokeColor=#432D57;" parent="bzp6KQlfHaJFWQhwAEtc-1" vertex="1">
          <mxGeometry y="30" width="180" height="30" as="geometry" />
        </mxCell>
        <mxCell id="bzp6KQlfHaJFWQhwAEtc-3" value="&lt;b&gt;PK&lt;/b&gt;" style="shape=partialRectangle;connectable=0;top=0;left=0;bottom=0;right=0;overflow=hidden;whiteSpace=wrap;html=1;swimlaneLine=1;fillColor=#76608a;fontColor=#ffffff;strokeColor=#432D57;" parent="bzp6KQlfHaJFWQhwAEtc-2" vertex="1">
          <mxGeometry width="30" height="30" as="geometry">
            <mxRectangle width="30" height="30" as="alternateBounds" />
          </mxGeometry>
        </mxCell>
        <mxCell id="bzp6KQlfHaJFWQhwAEtc-4" value="id - int" style="shape=partialRectangle;connectable=0;top=0;left=0;bottom=0;right=0;align=left;spacingLeft=6;overflow=hidden;whiteSpace=wrap;html=1;swimlaneLine=1;fillColor=#76608a;fontColor=#ffffff;strokeColor=#432D57;" parent="bzp6KQlfHaJFWQhwAEtc-2" vertex="1">
          <mxGeometry x="30" width="150" height="30" as="geometry">
            <mxRectangle width="150" height="30" as="alternateBounds" />
          </mxGeometry>
        </mxCell>
        <mxCell id="bzp6KQlfHaJFWQhwAEtc-8" value="" style="shape=tableRow;horizontal=0;startSize=0;swimlaneHead=0;swimlaneBody=0;collapsible=0;dropTarget=0;points=[[0,0.5],[1,0.5]];portConstraint=eastwest;top=0;left=0;right=0;bottom=0;swimlaneLine=1;fillColor=#76608a;fontColor=#ffffff;strokeColor=#432D57;" parent="bzp6KQlfHaJFWQhwAEtc-1" vertex="1">
          <mxGeometry y="60" width="180" height="30" as="geometry" />
        </mxCell>
        <mxCell id="bzp6KQlfHaJFWQhwAEtc-9" value="" style="shape=partialRectangle;connectable=0;top=0;left=0;bottom=0;right=0;editable=1;overflow=hidden;whiteSpace=wrap;html=1;swimlaneLine=1;fillColor=#76608a;fontColor=#ffffff;strokeColor=#432D57;" parent="bzp6KQlfHaJFWQhwAEtc-8" vertex="1">
          <mxGeometry width="30" height="30" as="geometry">
            <mxRectangle width="30" height="30" as="alternateBounds" />
          </mxGeometry>
        </mxCell>
        <mxCell id="bzp6KQlfHaJFWQhwAEtc-10" value="extra_information - text" style="shape=partialRectangle;connectable=0;top=0;left=0;bottom=0;right=0;align=left;spacingLeft=6;overflow=hidden;whiteSpace=wrap;html=1;swimlaneLine=1;fillColor=#76608a;fontColor=#ffffff;strokeColor=#432D57;" parent="bzp6KQlfHaJFWQhwAEtc-8" vertex="1">
          <mxGeometry x="30" width="150" height="30" as="geometry">
            <mxRectangle width="150" height="30" as="alternateBounds" />
          </mxGeometry>
        </mxCell>
        <mxCell id="bzp6KQlfHaJFWQhwAEtc-11" value="" style="shape=tableRow;horizontal=0;startSize=0;swimlaneHead=0;swimlaneBody=0;collapsible=0;dropTarget=0;points=[[0,0.5],[1,0.5]];portConstraint=eastwest;top=0;left=0;right=0;bottom=0;swimlaneLine=1;fillColor=#76608a;fontColor=#ffffff;strokeColor=#432D57;" parent="bzp6KQlfHaJFWQhwAEtc-1" vertex="1">
          <mxGeometry y="90" width="180" height="30" as="geometry" />
        </mxCell>
        <mxCell id="bzp6KQlfHaJFWQhwAEtc-12" value="" style="shape=partialRectangle;connectable=0;top=0;left=0;bottom=0;right=0;editable=1;overflow=hidden;whiteSpace=wrap;html=1;swimlaneLine=1;fillColor=#76608a;fontColor=#ffffff;strokeColor=#432D57;" parent="bzp6KQlfHaJFWQhwAEtc-11" vertex="1">
          <mxGeometry width="30" height="30" as="geometry">
            <mxRectangle width="30" height="30" as="alternateBounds" />
          </mxGeometry>
        </mxCell>
        <mxCell id="bzp6KQlfHaJFWQhwAEtc-13" value="datetime - datetime" style="shape=partialRectangle;connectable=0;top=0;left=0;bottom=0;right=0;align=left;spacingLeft=6;overflow=hidden;whiteSpace=wrap;html=1;swimlaneLine=1;fillColor=#76608a;fontColor=#ffffff;strokeColor=#432D57;" parent="bzp6KQlfHaJFWQhwAEtc-11" vertex="1">
          <mxGeometry x="30" width="150" height="30" as="geometry">
            <mxRectangle width="150" height="30" as="alternateBounds" />
          </mxGeometry>
        </mxCell>
        <mxCell id="0nlEcby6L9T7chjrlaOP-7" value="" style="shape=tableRow;horizontal=0;startSize=0;swimlaneHead=0;swimlaneBody=0;collapsible=0;dropTarget=0;points=[[0,0.5],[1,0.5]];portConstraint=eastwest;top=0;left=0;right=0;bottom=0;swimlaneLine=1;fillColor=#76608a;fontColor=#ffffff;strokeColor=#432D57;" parent="bzp6KQlfHaJFWQhwAEtc-1" vertex="1">
          <mxGeometry y="120" width="180" height="30" as="geometry" />
        </mxCell>
        <mxCell id="0nlEcby6L9T7chjrlaOP-8" value="" style="shape=partialRectangle;connectable=0;top=0;left=0;bottom=0;right=0;editable=1;overflow=hidden;whiteSpace=wrap;html=1;swimlaneLine=1;fillColor=#76608a;fontColor=#ffffff;strokeColor=#432D57;" parent="0nlEcby6L9T7chjrlaOP-7" vertex="1">
          <mxGeometry width="30" height="30" as="geometry">
            <mxRectangle width="30" height="30" as="alternateBounds" />
          </mxGeometry>
        </mxCell>
        <mxCell id="0nlEcby6L9T7chjrlaOP-9" value="status - char" style="shape=partialRectangle;connectable=0;top=0;left=0;bottom=0;right=0;align=left;spacingLeft=6;overflow=hidden;whiteSpace=wrap;html=1;swimlaneLine=1;fillColor=#76608a;fontColor=#ffffff;strokeColor=#432D57;" parent="0nlEcby6L9T7chjrlaOP-7" vertex="1">
          <mxGeometry x="30" width="150" height="30" as="geometry">
            <mxRectangle width="150" height="30" as="alternateBounds" />
          </mxGeometry>
        </mxCell>
        <mxCell id="0nlEcby6L9T7chjrlaOP-4" value="" style="shape=tableRow;horizontal=0;startSize=0;swimlaneHead=0;swimlaneBody=0;collapsible=0;dropTarget=0;points=[[0,0.5],[1,0.5]];portConstraint=eastwest;top=0;left=0;right=0;bottom=0;swimlaneLine=1;fillColor=#76608a;fontColor=#ffffff;strokeColor=#432D57;" parent="bzp6KQlfHaJFWQhwAEtc-1" vertex="1">
          <mxGeometry y="150" width="180" height="30" as="geometry" />
        </mxCell>
        <mxCell id="0nlEcby6L9T7chjrlaOP-5" value="&lt;b&gt;FK&lt;/b&gt;" style="shape=partialRectangle;connectable=0;top=0;left=0;bottom=0;right=0;editable=1;overflow=hidden;whiteSpace=wrap;html=1;swimlaneLine=1;fillColor=#76608a;fontColor=#ffffff;strokeColor=#432D57;" parent="0nlEcby6L9T7chjrlaOP-4" vertex="1">
          <mxGeometry width="30" height="30" as="geometry">
            <mxRectangle width="30" height="30" as="alternateBounds" />
          </mxGeometry>
        </mxCell>
        <mxCell id="0nlEcby6L9T7chjrlaOP-6" value="request - int" style="shape=partialRectangle;connectable=0;top=0;left=0;bottom=0;right=0;align=left;spacingLeft=6;overflow=hidden;whiteSpace=wrap;html=1;swimlaneLine=1;fillColor=#76608a;fontColor=#ffffff;strokeColor=#432D57;" parent="0nlEcby6L9T7chjrlaOP-4" vertex="1">
          <mxGeometry x="30" width="150" height="30" as="geometry">
            <mxRectangle width="150" height="30" as="alternateBounds" />
          </mxGeometry>
        </mxCell>
        <mxCell id="1fB6QBnC89j-sLLrV6No-55" value="" style="edgeStyle=orthogonalEdgeStyle;rounded=0;orthogonalLoop=1;jettySize=auto;html=1;startArrow=ERzeroToOne;startFill=0;endArrow=ERzeroToOne;endFill=0;entryX=0;entryY=0.5;entryDx=0;entryDy=0;exitX=0;exitY=0.5;exitDx=0;exitDy=0;swimlaneLine=1;fillColor=#76608a;strokeColor=#432D57;" parent="_B_bOpre39auC-GVk16h-1" source="0nlEcby6L9T7chjrlaOP-4" target="0nlEcby6L9T7chjrlaOP-11" edge="1">
          <mxGeometry relative="1" as="geometry">
            <mxPoint x="591" y="-510" as="targetPoint" />
            <Array as="points">
              <mxPoint x="20" y="215" />
              <mxPoint x="20" y="305" />
            </Array>
          </mxGeometry>
        </mxCell>
        <mxCell id="_B_bOpre39auC-GVk16h-65" value="" style="edgeStyle=orthogonalEdgeStyle;rounded=0;orthogonalLoop=1;jettySize=auto;html=1;entryX=1;entryY=0.5;entryDx=0;entryDy=0;startArrow=ERzeroToMany;startFill=0;endArrow=ERzeroToOne;endFill=0;exitX=0;exitY=0.5;exitDx=0;exitDy=0;swimlaneLine=1;fillColor=#76608a;strokeColor=#432D57;" parent="_B_bOpre39auC-GVk16h-1" source="xMz_KbfSaYniYS-BvoWz-19" target="0nlEcby6L9T7chjrlaOP-11" edge="1">
          <mxGeometry relative="1" as="geometry">
            <Array as="points">
              <mxPoint x="260" y="295" />
              <mxPoint x="260" y="305" />
            </Array>
          </mxGeometry>
        </mxCell>
        <mxCell id="xMz_KbfSaYniYS-BvoWz-6" value="ProcessAuditEvent" style="shape=table;startSize=30;container=1;collapsible=1;childLayout=tableLayout;fixedRows=1;rowLines=0;align=center;resizeLast=1;html=1;swimlaneLine=1;fontStyle=1;fillColor=#76608a;fontColor=#ffffff;strokeColor=#432D57;" parent="_B_bOpre39auC-GVk16h-1" vertex="1">
          <mxGeometry x="300" y="100" width="180" height="240" as="geometry" />
        </mxCell>
        <mxCell id="xMz_KbfSaYniYS-BvoWz-7" value="" style="shape=tableRow;horizontal=0;startSize=0;swimlaneHead=0;swimlaneBody=0;collapsible=0;dropTarget=0;points=[[0,0.5],[1,0.5]];portConstraint=eastwest;top=0;left=0;right=0;bottom=1;swimlaneLine=1;fillColor=#76608a;fontColor=#ffffff;strokeColor=#432D57;" parent="xMz_KbfSaYniYS-BvoWz-6" vertex="1">
          <mxGeometry y="30" width="180" height="30" as="geometry" />
        </mxCell>
        <mxCell id="xMz_KbfSaYniYS-BvoWz-8" value="&lt;b&gt;PK&lt;/b&gt;" style="shape=partialRectangle;connectable=0;top=0;left=0;bottom=0;right=0;overflow=hidden;whiteSpace=wrap;html=1;swimlaneLine=1;fillColor=#76608a;fontColor=#ffffff;strokeColor=#432D57;" parent="xMz_KbfSaYniYS-BvoWz-7" vertex="1">
          <mxGeometry width="30" height="30" as="geometry">
            <mxRectangle width="30" height="30" as="alternateBounds" />
          </mxGeometry>
        </mxCell>
        <mxCell id="xMz_KbfSaYniYS-BvoWz-9" value="id - int" style="shape=partialRectangle;connectable=0;top=0;left=0;bottom=0;right=0;align=left;spacingLeft=6;overflow=hidden;whiteSpace=wrap;html=1;swimlaneLine=1;fillColor=#76608a;fontColor=#ffffff;strokeColor=#432D57;" parent="xMz_KbfSaYniYS-BvoWz-7" vertex="1">
          <mxGeometry x="30" width="150" height="30" as="geometry">
            <mxRectangle width="150" height="30" as="alternateBounds" />
          </mxGeometry>
        </mxCell>
        <mxCell id="xMz_KbfSaYniYS-BvoWz-10" value="" style="shape=tableRow;horizontal=0;startSize=0;swimlaneHead=0;swimlaneBody=0;collapsible=0;dropTarget=0;points=[[0,0.5],[1,0.5]];portConstraint=eastwest;top=0;left=0;right=0;bottom=0;swimlaneLine=1;fillColor=#76608a;fontColor=#ffffff;strokeColor=#432D57;" parent="xMz_KbfSaYniYS-BvoWz-6" vertex="1">
          <mxGeometry y="60" width="180" height="30" as="geometry" />
        </mxCell>
        <mxCell id="xMz_KbfSaYniYS-BvoWz-11" value="" style="shape=partialRectangle;connectable=0;top=0;left=0;bottom=0;right=0;editable=1;overflow=hidden;whiteSpace=wrap;html=1;swimlaneLine=1;fillColor=#76608a;fontColor=#ffffff;strokeColor=#432D57;" parent="xMz_KbfSaYniYS-BvoWz-10" vertex="1">
          <mxGeometry width="30" height="30" as="geometry">
            <mxRectangle width="30" height="30" as="alternateBounds" />
          </mxGeometry>
        </mxCell>
        <mxCell id="xMz_KbfSaYniYS-BvoWz-12" value="extra_information - text" style="shape=partialRectangle;connectable=0;top=0;left=0;bottom=0;right=0;align=left;spacingLeft=6;overflow=hidden;whiteSpace=wrap;html=1;swimlaneLine=1;fillColor=#76608a;fontColor=#ffffff;strokeColor=#432D57;" parent="xMz_KbfSaYniYS-BvoWz-10" vertex="1">
          <mxGeometry x="30" width="150" height="30" as="geometry">
            <mxRectangle width="150" height="30" as="alternateBounds" />
          </mxGeometry>
        </mxCell>
        <mxCell id="xMz_KbfSaYniYS-BvoWz-13" value="" style="shape=tableRow;horizontal=0;startSize=0;swimlaneHead=0;swimlaneBody=0;collapsible=0;dropTarget=0;points=[[0,0.5],[1,0.5]];portConstraint=eastwest;top=0;left=0;right=0;bottom=0;swimlaneLine=1;fillColor=#76608a;fontColor=#ffffff;strokeColor=#432D57;" parent="xMz_KbfSaYniYS-BvoWz-6" vertex="1">
          <mxGeometry y="90" width="180" height="30" as="geometry" />
        </mxCell>
        <mxCell id="xMz_KbfSaYniYS-BvoWz-14" value="" style="shape=partialRectangle;connectable=0;top=0;left=0;bottom=0;right=0;editable=1;overflow=hidden;whiteSpace=wrap;html=1;swimlaneLine=1;fillColor=#76608a;fontColor=#ffffff;strokeColor=#432D57;" parent="xMz_KbfSaYniYS-BvoWz-13" vertex="1">
          <mxGeometry width="30" height="30" as="geometry">
            <mxRectangle width="30" height="30" as="alternateBounds" />
          </mxGeometry>
        </mxCell>
        <mxCell id="xMz_KbfSaYniYS-BvoWz-15" value="datetime - datetime" style="shape=partialRectangle;connectable=0;top=0;left=0;bottom=0;right=0;align=left;spacingLeft=6;overflow=hidden;whiteSpace=wrap;html=1;swimlaneLine=1;fillColor=#76608a;fontColor=#ffffff;strokeColor=#432D57;" parent="xMz_KbfSaYniYS-BvoWz-13" vertex="1">
          <mxGeometry x="30" width="150" height="30" as="geometry">
            <mxRectangle width="150" height="30" as="alternateBounds" />
          </mxGeometry>
        </mxCell>
        <mxCell id="7q4QDU65tGDHRg2ktiR--1" value="" style="shape=tableRow;horizontal=0;startSize=0;swimlaneHead=0;swimlaneBody=0;collapsible=0;dropTarget=0;points=[[0,0.5],[1,0.5]];portConstraint=eastwest;top=0;left=0;right=0;bottom=0;swimlaneLine=1;fillColor=#76608a;fontColor=#ffffff;strokeColor=#432D57;" parent="xMz_KbfSaYniYS-BvoWz-6" vertex="1">
          <mxGeometry y="120" width="180" height="30" as="geometry" />
        </mxCell>
        <mxCell id="7q4QDU65tGDHRg2ktiR--2" value="" style="shape=partialRectangle;connectable=0;top=0;left=0;bottom=0;right=0;editable=1;overflow=hidden;whiteSpace=wrap;html=1;swimlaneLine=1;fillColor=#76608a;fontColor=#ffffff;strokeColor=#432D57;" parent="7q4QDU65tGDHRg2ktiR--1" vertex="1">
          <mxGeometry width="30" height="30" as="geometry">
            <mxRectangle width="30" height="30" as="alternateBounds" />
          </mxGeometry>
        </mxCell>
        <mxCell id="7q4QDU65tGDHRg2ktiR--3" value="name - char" style="shape=partialRectangle;connectable=0;top=0;left=0;bottom=0;right=0;align=left;spacingLeft=6;overflow=hidden;whiteSpace=wrap;html=1;swimlaneLine=1;fillColor=#76608a;fontColor=#ffffff;strokeColor=#432D57;" parent="7q4QDU65tGDHRg2ktiR--1" vertex="1">
          <mxGeometry x="30" width="150" height="30" as="geometry">
            <mxRectangle width="150" height="30" as="alternateBounds" />
          </mxGeometry>
        </mxCell>
        <mxCell id="7q4QDU65tGDHRg2ktiR--4" value="" style="shape=tableRow;horizontal=0;startSize=0;swimlaneHead=0;swimlaneBody=0;collapsible=0;dropTarget=0;points=[[0,0.5],[1,0.5]];portConstraint=eastwest;top=0;left=0;right=0;bottom=0;swimlaneLine=1;fillColor=#76608a;fontColor=#ffffff;strokeColor=#432D57;" parent="xMz_KbfSaYniYS-BvoWz-6" vertex="1">
          <mxGeometry y="150" width="180" height="30" as="geometry" />
        </mxCell>
        <mxCell id="7q4QDU65tGDHRg2ktiR--5" value="" style="shape=partialRectangle;connectable=0;top=0;left=0;bottom=0;right=0;editable=1;overflow=hidden;whiteSpace=wrap;html=1;swimlaneLine=1;fillColor=#76608a;fontColor=#ffffff;strokeColor=#432D57;" parent="7q4QDU65tGDHRg2ktiR--4" vertex="1">
          <mxGeometry width="30" height="30" as="geometry">
            <mxRectangle width="30" height="30" as="alternateBounds" />
          </mxGeometry>
        </mxCell>
        <mxCell id="7q4QDU65tGDHRg2ktiR--6" value="description - text" style="shape=partialRectangle;connectable=0;top=0;left=0;bottom=0;right=0;align=left;spacingLeft=6;overflow=hidden;whiteSpace=wrap;html=1;swimlaneLine=1;fillColor=#76608a;fontColor=#ffffff;strokeColor=#432D57;" parent="7q4QDU65tGDHRg2ktiR--4" vertex="1">
          <mxGeometry x="30" width="150" height="30" as="geometry">
            <mxRectangle width="150" height="30" as="alternateBounds" />
          </mxGeometry>
        </mxCell>
        <mxCell id="xMz_KbfSaYniYS-BvoWz-19" value="" style="shape=tableRow;horizontal=0;startSize=0;swimlaneHead=0;swimlaneBody=0;collapsible=0;dropTarget=0;points=[[0,0.5],[1,0.5]];portConstraint=eastwest;top=0;left=0;right=0;bottom=0;swimlaneLine=1;fillColor=#76608a;fontColor=#ffffff;strokeColor=#432D57;" parent="xMz_KbfSaYniYS-BvoWz-6" vertex="1">
          <mxGeometry y="180" width="180" height="30" as="geometry" />
        </mxCell>
        <mxCell id="xMz_KbfSaYniYS-BvoWz-20" value="" style="shape=partialRectangle;connectable=0;top=0;left=0;bottom=0;right=0;editable=1;overflow=hidden;whiteSpace=wrap;html=1;swimlaneLine=1;fillColor=#76608a;fontColor=#ffffff;strokeColor=#432D57;" parent="xMz_KbfSaYniYS-BvoWz-19" vertex="1">
          <mxGeometry width="30" height="30" as="geometry">
            <mxRectangle width="30" height="30" as="alternateBounds" />
          </mxGeometry>
        </mxCell>
        <mxCell id="xMz_KbfSaYniYS-BvoWz-21" value="created_by - chart" style="shape=partialRectangle;connectable=0;top=0;left=0;bottom=0;right=0;align=left;spacingLeft=6;overflow=hidden;whiteSpace=wrap;html=1;swimlaneLine=1;fillColor=#76608a;fontColor=#ffffff;strokeColor=#432D57;" parent="xMz_KbfSaYniYS-BvoWz-19" vertex="1">
          <mxGeometry x="30" width="150" height="30" as="geometry">
            <mxRectangle width="150" height="30" as="alternateBounds" />
          </mxGeometry>
        </mxCell>
        <mxCell id="7q4QDU65tGDHRg2ktiR--7" value="" style="shape=tableRow;horizontal=0;startSize=0;swimlaneHead=0;swimlaneBody=0;collapsible=0;dropTarget=0;points=[[0,0.5],[1,0.5]];portConstraint=eastwest;top=0;left=0;right=0;bottom=0;swimlaneLine=1;fillColor=#76608a;fontColor=#ffffff;strokeColor=#432D57;" parent="xMz_KbfSaYniYS-BvoWz-6" vertex="1">
          <mxGeometry y="210" width="180" height="30" as="geometry" />
        </mxCell>
        <mxCell id="7q4QDU65tGDHRg2ktiR--8" value="&lt;b&gt;FK&lt;/b&gt;" style="shape=partialRectangle;connectable=0;top=0;left=0;bottom=0;right=0;editable=1;overflow=hidden;whiteSpace=wrap;html=1;swimlaneLine=1;fillColor=#76608a;fontColor=#ffffff;strokeColor=#432D57;" parent="7q4QDU65tGDHRg2ktiR--7" vertex="1">
          <mxGeometry width="30" height="30" as="geometry">
            <mxRectangle width="30" height="30" as="alternateBounds" />
          </mxGeometry>
        </mxCell>
        <mxCell id="7q4QDU65tGDHRg2ktiR--9" value="request - int" style="shape=partialRectangle;connectable=0;top=0;left=0;bottom=0;right=0;align=left;spacingLeft=6;overflow=hidden;whiteSpace=wrap;html=1;swimlaneLine=1;fillColor=#76608a;fontColor=#ffffff;strokeColor=#432D57;" parent="7q4QDU65tGDHRg2ktiR--7" vertex="1">
          <mxGeometry x="30" width="150" height="30" as="geometry">
            <mxRectangle width="150" height="30" as="alternateBounds" />
          </mxGeometry>
        </mxCell>
        <mxCell id="xMz_KbfSaYniYS-BvoWz-22" value="StepAuditEvent" style="shape=table;startSize=30;container=1;collapsible=1;childLayout=tableLayout;fixedRows=1;rowLines=0;align=center;resizeLast=1;html=1;swimlaneLine=1;fontStyle=1;fillColor=#76608a;fontColor=#ffffff;strokeColor=#432D57;" parent="_B_bOpre39auC-GVk16h-1" vertex="1">
          <mxGeometry x="300" y="370" width="180" height="300" as="geometry" />
        </mxCell>
        <mxCell id="xMz_KbfSaYniYS-BvoWz-23" value="" style="shape=tableRow;horizontal=0;startSize=0;swimlaneHead=0;swimlaneBody=0;collapsible=0;dropTarget=0;points=[[0,0.5],[1,0.5]];portConstraint=eastwest;top=0;left=0;right=0;bottom=1;swimlaneLine=1;fillColor=#76608a;fontColor=#ffffff;strokeColor=#432D57;" parent="xMz_KbfSaYniYS-BvoWz-22" vertex="1">
          <mxGeometry y="30" width="180" height="30" as="geometry" />
        </mxCell>
        <mxCell id="xMz_KbfSaYniYS-BvoWz-24" value="&lt;b&gt;PK&lt;/b&gt;" style="shape=partialRectangle;connectable=0;top=0;left=0;bottom=0;right=0;overflow=hidden;whiteSpace=wrap;html=1;swimlaneLine=1;fillColor=#76608a;fontColor=#ffffff;strokeColor=#432D57;" parent="xMz_KbfSaYniYS-BvoWz-23" vertex="1">
          <mxGeometry width="30" height="30" as="geometry">
            <mxRectangle width="30" height="30" as="alternateBounds" />
          </mxGeometry>
        </mxCell>
        <mxCell id="xMz_KbfSaYniYS-BvoWz-25" value="id - int" style="shape=partialRectangle;connectable=0;top=0;left=0;bottom=0;right=0;align=left;spacingLeft=6;overflow=hidden;whiteSpace=wrap;html=1;swimlaneLine=1;fillColor=#76608a;fontColor=#ffffff;strokeColor=#432D57;" parent="xMz_KbfSaYniYS-BvoWz-23" vertex="1">
          <mxGeometry x="30" width="150" height="30" as="geometry">
            <mxRectangle width="150" height="30" as="alternateBounds" />
          </mxGeometry>
        </mxCell>
        <mxCell id="xMz_KbfSaYniYS-BvoWz-26" value="" style="shape=tableRow;horizontal=0;startSize=0;swimlaneHead=0;swimlaneBody=0;collapsible=0;dropTarget=0;points=[[0,0.5],[1,0.5]];portConstraint=eastwest;top=0;left=0;right=0;bottom=0;swimlaneLine=1;fillColor=#76608a;fontColor=#ffffff;strokeColor=#432D57;" parent="xMz_KbfSaYniYS-BvoWz-22" vertex="1">
          <mxGeometry y="60" width="180" height="30" as="geometry" />
        </mxCell>
        <mxCell id="xMz_KbfSaYniYS-BvoWz-27" value="" style="shape=partialRectangle;connectable=0;top=0;left=0;bottom=0;right=0;editable=1;overflow=hidden;whiteSpace=wrap;html=1;swimlaneLine=1;fillColor=#76608a;fontColor=#ffffff;strokeColor=#432D57;" parent="xMz_KbfSaYniYS-BvoWz-26" vertex="1">
          <mxGeometry width="30" height="30" as="geometry">
            <mxRectangle width="30" height="30" as="alternateBounds" />
          </mxGeometry>
        </mxCell>
        <mxCell id="xMz_KbfSaYniYS-BvoWz-28" value="extra_information - text" style="shape=partialRectangle;connectable=0;top=0;left=0;bottom=0;right=0;align=left;spacingLeft=6;overflow=hidden;whiteSpace=wrap;html=1;swimlaneLine=1;fillColor=#76608a;fontColor=#ffffff;strokeColor=#432D57;" parent="xMz_KbfSaYniYS-BvoWz-26" vertex="1">
          <mxGeometry x="30" width="150" height="30" as="geometry">
            <mxRectangle width="150" height="30" as="alternateBounds" />
          </mxGeometry>
        </mxCell>
        <mxCell id="xMz_KbfSaYniYS-BvoWz-29" value="" style="shape=tableRow;horizontal=0;startSize=0;swimlaneHead=0;swimlaneBody=0;collapsible=0;dropTarget=0;points=[[0,0.5],[1,0.5]];portConstraint=eastwest;top=0;left=0;right=0;bottom=0;swimlaneLine=1;fillColor=#76608a;fontColor=#ffffff;strokeColor=#432D57;" parent="xMz_KbfSaYniYS-BvoWz-22" vertex="1">
          <mxGeometry y="90" width="180" height="30" as="geometry" />
        </mxCell>
        <mxCell id="xMz_KbfSaYniYS-BvoWz-30" value="" style="shape=partialRectangle;connectable=0;top=0;left=0;bottom=0;right=0;editable=1;overflow=hidden;whiteSpace=wrap;html=1;swimlaneLine=1;fillColor=#76608a;fontColor=#ffffff;strokeColor=#432D57;" parent="xMz_KbfSaYniYS-BvoWz-29" vertex="1">
          <mxGeometry width="30" height="30" as="geometry">
            <mxRectangle width="30" height="30" as="alternateBounds" />
          </mxGeometry>
        </mxCell>
        <mxCell id="xMz_KbfSaYniYS-BvoWz-31" value="datetime - datetime" style="shape=partialRectangle;connectable=0;top=0;left=0;bottom=0;right=0;align=left;spacingLeft=6;overflow=hidden;whiteSpace=wrap;html=1;swimlaneLine=1;fillColor=#76608a;fontColor=#ffffff;strokeColor=#432D57;" parent="xMz_KbfSaYniYS-BvoWz-29" vertex="1">
          <mxGeometry x="30" width="150" height="30" as="geometry">
            <mxRectangle width="150" height="30" as="alternateBounds" />
          </mxGeometry>
        </mxCell>
        <mxCell id="xMz_KbfSaYniYS-BvoWz-32" value="" style="shape=tableRow;horizontal=0;startSize=0;swimlaneHead=0;swimlaneBody=0;collapsible=0;dropTarget=0;points=[[0,0.5],[1,0.5]];portConstraint=eastwest;top=0;left=0;right=0;bottom=0;swimlaneLine=1;fillColor=#76608a;fontColor=#ffffff;strokeColor=#432D57;" parent="xMz_KbfSaYniYS-BvoWz-22" vertex="1">
          <mxGeometry y="120" width="180" height="30" as="geometry" />
        </mxCell>
        <mxCell id="xMz_KbfSaYniYS-BvoWz-33" value="&lt;b&gt;FK&lt;/b&gt;" style="shape=partialRectangle;connectable=0;top=0;left=0;bottom=0;right=0;editable=1;overflow=hidden;whiteSpace=wrap;html=1;swimlaneLine=1;fillColor=#76608a;fontColor=#ffffff;strokeColor=#432D57;" parent="xMz_KbfSaYniYS-BvoWz-32" vertex="1">
          <mxGeometry width="30" height="30" as="geometry">
            <mxRectangle width="30" height="30" as="alternateBounds" />
          </mxGeometry>
        </mxCell>
        <mxCell id="xMz_KbfSaYniYS-BvoWz-34" value="process - int" style="shape=partialRectangle;connectable=0;top=0;left=0;bottom=0;right=0;align=left;spacingLeft=6;overflow=hidden;whiteSpace=wrap;html=1;swimlaneLine=1;fillColor=#76608a;fontColor=#ffffff;strokeColor=#432D57;" parent="xMz_KbfSaYniYS-BvoWz-32" vertex="1">
          <mxGeometry x="30" width="150" height="30" as="geometry">
            <mxRectangle width="150" height="30" as="alternateBounds" />
          </mxGeometry>
        </mxCell>
        <mxCell id="xMz_KbfSaYniYS-BvoWz-35" value="" style="shape=tableRow;horizontal=0;startSize=0;swimlaneHead=0;swimlaneBody=0;collapsible=0;dropTarget=0;points=[[0,0.5],[1,0.5]];portConstraint=eastwest;top=0;left=0;right=0;bottom=0;swimlaneLine=1;fillColor=#76608a;fontColor=#ffffff;strokeColor=#432D57;" parent="xMz_KbfSaYniYS-BvoWz-22" vertex="1">
          <mxGeometry y="150" width="180" height="30" as="geometry" />
        </mxCell>
        <mxCell id="xMz_KbfSaYniYS-BvoWz-36" value="" style="shape=partialRectangle;connectable=0;top=0;left=0;bottom=0;right=0;editable=1;overflow=hidden;whiteSpace=wrap;html=1;swimlaneLine=1;fillColor=#76608a;fontColor=#ffffff;strokeColor=#432D57;" parent="xMz_KbfSaYniYS-BvoWz-35" vertex="1">
          <mxGeometry width="30" height="30" as="geometry">
            <mxRectangle width="30" height="30" as="alternateBounds" />
          </mxGeometry>
        </mxCell>
        <mxCell id="xMz_KbfSaYniYS-BvoWz-37" value="name - char" style="shape=partialRectangle;connectable=0;top=0;left=0;bottom=0;right=0;align=left;spacingLeft=6;overflow=hidden;whiteSpace=wrap;html=1;swimlaneLine=1;fillColor=#76608a;fontColor=#ffffff;strokeColor=#432D57;" parent="xMz_KbfSaYniYS-BvoWz-35" vertex="1">
          <mxGeometry x="30" width="150" height="30" as="geometry">
            <mxRectangle width="150" height="30" as="alternateBounds" />
          </mxGeometry>
        </mxCell>
        <mxCell id="xMz_KbfSaYniYS-BvoWz-38" value="" style="shape=tableRow;horizontal=0;startSize=0;swimlaneHead=0;swimlaneBody=0;collapsible=0;dropTarget=0;points=[[0,0.5],[1,0.5]];portConstraint=eastwest;top=0;left=0;right=0;bottom=0;swimlaneLine=1;fillColor=#76608a;fontColor=#ffffff;strokeColor=#432D57;" parent="xMz_KbfSaYniYS-BvoWz-22" vertex="1">
          <mxGeometry y="180" width="180" height="30" as="geometry" />
        </mxCell>
        <mxCell id="xMz_KbfSaYniYS-BvoWz-39" value="" style="shape=partialRectangle;connectable=0;top=0;left=0;bottom=0;right=0;editable=1;overflow=hidden;whiteSpace=wrap;html=1;swimlaneLine=1;fillColor=#76608a;fontColor=#ffffff;strokeColor=#432D57;" parent="xMz_KbfSaYniYS-BvoWz-38" vertex="1">
          <mxGeometry width="30" height="30" as="geometry">
            <mxRectangle width="30" height="30" as="alternateBounds" />
          </mxGeometry>
        </mxCell>
        <mxCell id="xMz_KbfSaYniYS-BvoWz-40" value="description - text" style="shape=partialRectangle;connectable=0;top=0;left=0;bottom=0;right=0;align=left;spacingLeft=6;overflow=hidden;whiteSpace=wrap;html=1;swimlaneLine=1;fillColor=#76608a;fontColor=#ffffff;strokeColor=#432D57;" parent="xMz_KbfSaYniYS-BvoWz-38" vertex="1">
          <mxGeometry x="30" width="150" height="30" as="geometry">
            <mxRectangle width="150" height="30" as="alternateBounds" />
          </mxGeometry>
        </mxCell>
        <mxCell id="xMz_KbfSaYniYS-BvoWz-41" value="" style="shape=tableRow;horizontal=0;startSize=0;swimlaneHead=0;swimlaneBody=0;collapsible=0;dropTarget=0;points=[[0,0.5],[1,0.5]];portConstraint=eastwest;top=0;left=0;right=0;bottom=0;swimlaneLine=1;fillColor=#76608a;fontColor=#ffffff;strokeColor=#432D57;" parent="xMz_KbfSaYniYS-BvoWz-22" vertex="1">
          <mxGeometry y="210" width="180" height="30" as="geometry" />
        </mxCell>
        <mxCell id="xMz_KbfSaYniYS-BvoWz-42" value="" style="shape=partialRectangle;connectable=0;top=0;left=0;bottom=0;right=0;editable=1;overflow=hidden;whiteSpace=wrap;html=1;swimlaneLine=1;fillColor=#76608a;fontColor=#ffffff;strokeColor=#432D57;" parent="xMz_KbfSaYniYS-BvoWz-41" vertex="1">
          <mxGeometry width="30" height="30" as="geometry">
            <mxRectangle width="30" height="30" as="alternateBounds" />
          </mxGeometry>
        </mxCell>
        <mxCell id="xMz_KbfSaYniYS-BvoWz-43" value="order - int" style="shape=partialRectangle;connectable=0;top=0;left=0;bottom=0;right=0;align=left;spacingLeft=6;overflow=hidden;whiteSpace=wrap;html=1;swimlaneLine=1;fillColor=#76608a;fontColor=#ffffff;strokeColor=#432D57;" parent="xMz_KbfSaYniYS-BvoWz-41" vertex="1">
          <mxGeometry x="30" width="150" height="30" as="geometry">
            <mxRectangle width="150" height="30" as="alternateBounds" />
          </mxGeometry>
        </mxCell>
        <mxCell id="7q4QDU65tGDHRg2ktiR--10" value="" style="shape=tableRow;horizontal=0;startSize=0;swimlaneHead=0;swimlaneBody=0;collapsible=0;dropTarget=0;points=[[0,0.5],[1,0.5]];portConstraint=eastwest;top=0;left=0;right=0;bottom=0;swimlaneLine=1;fillColor=#76608a;fontColor=#ffffff;strokeColor=#432D57;" parent="xMz_KbfSaYniYS-BvoWz-22" vertex="1">
          <mxGeometry y="240" width="180" height="30" as="geometry" />
        </mxCell>
        <mxCell id="7q4QDU65tGDHRg2ktiR--11" value="" style="shape=partialRectangle;connectable=0;top=0;left=0;bottom=0;right=0;editable=1;overflow=hidden;whiteSpace=wrap;html=1;swimlaneLine=1;fillColor=#76608a;fontColor=#ffffff;strokeColor=#432D57;" parent="7q4QDU65tGDHRg2ktiR--10" vertex="1">
          <mxGeometry width="30" height="30" as="geometry">
            <mxRectangle width="30" height="30" as="alternateBounds" />
          </mxGeometry>
        </mxCell>
        <mxCell id="7q4QDU65tGDHRg2ktiR--12" value="total_registrations - int" style="shape=partialRectangle;connectable=0;top=0;left=0;bottom=0;right=0;align=left;spacingLeft=6;overflow=hidden;whiteSpace=wrap;html=1;swimlaneLine=1;fillColor=#76608a;fontColor=#ffffff;strokeColor=#432D57;" parent="7q4QDU65tGDHRg2ktiR--10" vertex="1">
          <mxGeometry x="30" width="150" height="30" as="geometry">
            <mxRectangle width="150" height="30" as="alternateBounds" />
          </mxGeometry>
        </mxCell>
        <mxCell id="xMz_KbfSaYniYS-BvoWz-44" value="" style="shape=tableRow;horizontal=0;startSize=0;swimlaneHead=0;swimlaneBody=0;collapsible=0;dropTarget=0;points=[[0,0.5],[1,0.5]];portConstraint=eastwest;top=0;left=0;right=0;bottom=0;swimlaneLine=1;fillColor=#76608a;fontColor=#ffffff;strokeColor=#432D57;" parent="xMz_KbfSaYniYS-BvoWz-22" vertex="1">
          <mxGeometry y="270" width="180" height="30" as="geometry" />
        </mxCell>
        <mxCell id="xMz_KbfSaYniYS-BvoWz-45" value="" style="shape=partialRectangle;connectable=0;top=0;left=0;bottom=0;right=0;editable=1;overflow=hidden;whiteSpace=wrap;html=1;swimlaneLine=1;fillColor=#76608a;fontColor=#ffffff;strokeColor=#432D57;" parent="xMz_KbfSaYniYS-BvoWz-44" vertex="1">
          <mxGeometry width="30" height="30" as="geometry">
            <mxRectangle width="30" height="30" as="alternateBounds" />
          </mxGeometry>
        </mxCell>
        <mxCell id="xMz_KbfSaYniYS-BvoWz-46" value="created_by - char" style="shape=partialRectangle;connectable=0;top=0;left=0;bottom=0;right=0;align=left;spacingLeft=6;overflow=hidden;whiteSpace=wrap;html=1;swimlaneLine=1;fillColor=#76608a;fontColor=#ffffff;strokeColor=#432D57;" parent="xMz_KbfSaYniYS-BvoWz-44" vertex="1">
          <mxGeometry x="30" width="150" height="30" as="geometry">
            <mxRectangle width="150" height="30" as="alternateBounds" />
          </mxGeometry>
        </mxCell>
        <mxCell id="xMz_KbfSaYniYS-BvoWz-72" value="" style="edgeStyle=orthogonalEdgeStyle;rounded=0;orthogonalLoop=1;jettySize=auto;html=1;entryX=1;entryY=0.5;entryDx=0;entryDy=0;exitX=1;exitY=0.5;exitDx=0;exitDy=0;startArrow=ERoneToMany;startFill=0;endArrow=ERone;endFill=0;swimlaneLine=1;fillColor=#76608a;strokeColor=#432D57;" parent="_B_bOpre39auC-GVk16h-1" source="xMz_KbfSaYniYS-BvoWz-32" target="xMz_KbfSaYniYS-BvoWz-7" edge="1">
          <mxGeometry relative="1" as="geometry">
            <Array as="points">
              <mxPoint x="520" y="505" />
              <mxPoint x="520" y="145" />
            </Array>
          </mxGeometry>
        </mxCell>
        <mxCell id="xMz_KbfSaYniYS-BvoWz-73" value="" style="edgeStyle=orthogonalEdgeStyle;rounded=0;orthogonalLoop=1;jettySize=auto;html=1;endArrow=ERone;endFill=0;startArrow=ERoneToMany;startFill=0;exitX=0;exitY=0.5;exitDx=0;exitDy=0;entryX=1;entryY=0.5;entryDx=0;entryDy=0;swimlaneLine=1;fillColor=#76608a;strokeColor=#432D57;" parent="_B_bOpre39auC-GVk16h-1" source="xMz_KbfSaYniYS-BvoWz-57" target="xMz_KbfSaYniYS-BvoWz-23" edge="1">
          <mxGeometry relative="1" as="geometry">
            <Array as="points">
              <mxPoint x="540" y="235" />
              <mxPoint x="540" y="415" />
            </Array>
          </mxGeometry>
        </mxCell>
        <mxCell id="fXwCQfYxtOUF1GRJdhmx-7" value="Process audit" style="shape=umlFrame;whiteSpace=wrap;html=1;pointerEvents=0;recursiveResize=0;container=1;collapsible=0;width=110;align=center;height=30;swimlaneLine=1;fontStyle=1;fillColor=#76608a;fontColor=#ffffff;strokeColor=#432D57;" parent="_B_bOpre39auC-GVk16h-1" vertex="1">
          <mxGeometry x="270" y="50" width="510" height="640" as="geometry" />
        </mxCell>
        <mxCell id="fXwCQfYxtOUF1GRJdhmx-71" style="edgeStyle=orthogonalEdgeStyle;rounded=0;orthogonalLoop=1;jettySize=auto;html=1;entryX=1;entryY=0.5;entryDx=0;entryDy=0;startArrow=ERzeroToMany;startFill=0;endArrow=ERzeroToOne;endFill=0;exitX=0;exitY=0.5;exitDx=0;exitDy=0;" parent="fXwCQfYxtOUF1GRJdhmx-7" edge="1">
          <mxGeometry relative="1" as="geometry">
            <Array as="points">
              <mxPoint x="540" y="255" />
              <mxPoint x="540" y="105" />
            </Array>
            <mxPoint x="480" y="105" as="targetPoint" />
          </mxGeometry>
        </mxCell>
        <mxCell id="fXwCQfYxtOUF1GRJdhmx-147" style="edgeStyle=orthogonalEdgeStyle;rounded=0;orthogonalLoop=1;jettySize=auto;html=1;entryX=1;entryY=0.5;entryDx=0;entryDy=0;exitX=1;exitY=0.5;exitDx=0;exitDy=0;startArrow=ERoneToMany;startFill=0;endArrow=ERone;endFill=0;" parent="fXwCQfYxtOUF1GRJdhmx-7" edge="1">
          <mxGeometry relative="1" as="geometry">
            <Array as="points">
              <mxPoint x="800" y="465" />
              <mxPoint x="800" y="105" />
            </Array>
            <mxPoint x="760" y="105" as="targetPoint" />
          </mxGeometry>
        </mxCell>
        <mxCell id="fXwCQfYxtOUF1GRJdhmx-148" style="edgeStyle=orthogonalEdgeStyle;rounded=0;orthogonalLoop=1;jettySize=auto;html=1;endArrow=ERone;endFill=0;startArrow=ERoneToMany;startFill=0;exitX=0;exitY=0.5;exitDx=0;exitDy=0;entryX=1;entryY=0.5;entryDx=0;entryDy=0;" parent="fXwCQfYxtOUF1GRJdhmx-7" edge="1">
          <mxGeometry relative="1" as="geometry">
            <Array as="points">
              <mxPoint x="830" y="195" />
              <mxPoint x="830" y="335" />
              <mxPoint x="760" y="335" />
            </Array>
            <mxPoint x="870" y="195" as="sourcePoint" />
          </mxGeometry>
        </mxCell>
        <mxCell id="xMz_KbfSaYniYS-BvoWz-47" value="RegistrationAuditEvent" style="shape=table;startSize=30;container=1;collapsible=1;childLayout=tableLayout;fixedRows=1;rowLines=0;align=center;resizeLast=1;html=1;swimlaneLine=1;fontStyle=1;fillColor=#76608a;fontColor=#ffffff;strokeColor=#432D57;" parent="fXwCQfYxtOUF1GRJdhmx-7" vertex="1">
          <mxGeometry x="300" y="50" width="180" height="270" as="geometry" />
        </mxCell>
        <mxCell id="xMz_KbfSaYniYS-BvoWz-48" value="" style="shape=tableRow;horizontal=0;startSize=0;swimlaneHead=0;swimlaneBody=0;collapsible=0;dropTarget=0;points=[[0,0.5],[1,0.5]];portConstraint=eastwest;top=0;left=0;right=0;bottom=1;swimlaneLine=1;fillColor=#76608a;fontColor=#ffffff;strokeColor=#432D57;" parent="xMz_KbfSaYniYS-BvoWz-47" vertex="1">
          <mxGeometry y="30" width="180" height="30" as="geometry" />
        </mxCell>
        <mxCell id="xMz_KbfSaYniYS-BvoWz-49" value="&lt;b&gt;PK&lt;/b&gt;" style="shape=partialRectangle;connectable=0;top=0;left=0;bottom=0;right=0;overflow=hidden;whiteSpace=wrap;html=1;swimlaneLine=1;fillColor=#76608a;fontColor=#ffffff;strokeColor=#432D57;" parent="xMz_KbfSaYniYS-BvoWz-48" vertex="1">
          <mxGeometry width="30" height="30" as="geometry">
            <mxRectangle width="30" height="30" as="alternateBounds" />
          </mxGeometry>
        </mxCell>
        <mxCell id="xMz_KbfSaYniYS-BvoWz-50" value="id - int" style="shape=partialRectangle;connectable=0;top=0;left=0;bottom=0;right=0;align=left;spacingLeft=6;overflow=hidden;whiteSpace=wrap;html=1;swimlaneLine=1;fillColor=#76608a;fontColor=#ffffff;strokeColor=#432D57;" parent="xMz_KbfSaYniYS-BvoWz-48" vertex="1">
          <mxGeometry x="30" width="150" height="30" as="geometry">
            <mxRectangle width="150" height="30" as="alternateBounds" />
          </mxGeometry>
        </mxCell>
        <mxCell id="xMz_KbfSaYniYS-BvoWz-51" value="" style="shape=tableRow;horizontal=0;startSize=0;swimlaneHead=0;swimlaneBody=0;collapsible=0;dropTarget=0;points=[[0,0.5],[1,0.5]];portConstraint=eastwest;top=0;left=0;right=0;bottom=0;swimlaneLine=1;fillColor=#76608a;fontColor=#ffffff;strokeColor=#432D57;" parent="xMz_KbfSaYniYS-BvoWz-47" vertex="1">
          <mxGeometry y="60" width="180" height="30" as="geometry" />
        </mxCell>
        <mxCell id="xMz_KbfSaYniYS-BvoWz-52" value="" style="shape=partialRectangle;connectable=0;top=0;left=0;bottom=0;right=0;editable=1;overflow=hidden;whiteSpace=wrap;html=1;swimlaneLine=1;fillColor=#76608a;fontColor=#ffffff;strokeColor=#432D57;" parent="xMz_KbfSaYniYS-BvoWz-51" vertex="1">
          <mxGeometry width="30" height="30" as="geometry">
            <mxRectangle width="30" height="30" as="alternateBounds" />
          </mxGeometry>
        </mxCell>
        <mxCell id="xMz_KbfSaYniYS-BvoWz-53" value="extra_information - text" style="shape=partialRectangle;connectable=0;top=0;left=0;bottom=0;right=0;align=left;spacingLeft=6;overflow=hidden;whiteSpace=wrap;html=1;swimlaneLine=1;fillColor=#76608a;fontColor=#ffffff;strokeColor=#432D57;" parent="xMz_KbfSaYniYS-BvoWz-51" vertex="1">
          <mxGeometry x="30" width="150" height="30" as="geometry">
            <mxRectangle width="150" height="30" as="alternateBounds" />
          </mxGeometry>
        </mxCell>
        <mxCell id="xMz_KbfSaYniYS-BvoWz-54" value="" style="shape=tableRow;horizontal=0;startSize=0;swimlaneHead=0;swimlaneBody=0;collapsible=0;dropTarget=0;points=[[0,0.5],[1,0.5]];portConstraint=eastwest;top=0;left=0;right=0;bottom=0;swimlaneLine=1;fillColor=#76608a;fontColor=#ffffff;strokeColor=#432D57;" parent="xMz_KbfSaYniYS-BvoWz-47" vertex="1">
          <mxGeometry y="90" width="180" height="30" as="geometry" />
        </mxCell>
        <mxCell id="xMz_KbfSaYniYS-BvoWz-55" value="" style="shape=partialRectangle;connectable=0;top=0;left=0;bottom=0;right=0;editable=1;overflow=hidden;whiteSpace=wrap;html=1;swimlaneLine=1;fillColor=#76608a;fontColor=#ffffff;strokeColor=#432D57;" parent="xMz_KbfSaYniYS-BvoWz-54" vertex="1">
          <mxGeometry width="30" height="30" as="geometry">
            <mxRectangle width="30" height="30" as="alternateBounds" />
          </mxGeometry>
        </mxCell>
        <mxCell id="xMz_KbfSaYniYS-BvoWz-56" value="datetime - datetime" style="shape=partialRectangle;connectable=0;top=0;left=0;bottom=0;right=0;align=left;spacingLeft=6;overflow=hidden;whiteSpace=wrap;html=1;swimlaneLine=1;fillColor=#76608a;fontColor=#ffffff;strokeColor=#432D57;" parent="xMz_KbfSaYniYS-BvoWz-54" vertex="1">
          <mxGeometry x="30" width="150" height="30" as="geometry">
            <mxRectangle width="150" height="30" as="alternateBounds" />
          </mxGeometry>
        </mxCell>
        <mxCell id="xMz_KbfSaYniYS-BvoWz-57" value="" style="shape=tableRow;horizontal=0;startSize=0;swimlaneHead=0;swimlaneBody=0;collapsible=0;dropTarget=0;points=[[0,0.5],[1,0.5]];portConstraint=eastwest;top=0;left=0;right=0;bottom=0;swimlaneLine=1;fillColor=#76608a;fontColor=#ffffff;strokeColor=#432D57;" parent="xMz_KbfSaYniYS-BvoWz-47" vertex="1">
          <mxGeometry y="120" width="180" height="30" as="geometry" />
        </mxCell>
        <mxCell id="xMz_KbfSaYniYS-BvoWz-58" value="&lt;b&gt;FK&lt;/b&gt;" style="shape=partialRectangle;connectable=0;top=0;left=0;bottom=0;right=0;editable=1;overflow=hidden;whiteSpace=wrap;html=1;swimlaneLine=1;fillColor=#76608a;fontColor=#ffffff;strokeColor=#432D57;" parent="xMz_KbfSaYniYS-BvoWz-57" vertex="1">
          <mxGeometry width="30" height="30" as="geometry">
            <mxRectangle width="30" height="30" as="alternateBounds" />
          </mxGeometry>
        </mxCell>
        <mxCell id="xMz_KbfSaYniYS-BvoWz-59" value="step - int" style="shape=partialRectangle;connectable=0;top=0;left=0;bottom=0;right=0;align=left;spacingLeft=6;overflow=hidden;whiteSpace=wrap;html=1;swimlaneLine=1;fillColor=#76608a;fontColor=#ffffff;strokeColor=#432D57;" parent="xMz_KbfSaYniYS-BvoWz-57" vertex="1">
          <mxGeometry x="30" width="150" height="30" as="geometry">
            <mxRectangle width="150" height="30" as="alternateBounds" />
          </mxGeometry>
        </mxCell>
        <mxCell id="xMz_KbfSaYniYS-BvoWz-60" value="" style="shape=tableRow;horizontal=0;startSize=0;swimlaneHead=0;swimlaneBody=0;collapsible=0;dropTarget=0;points=[[0,0.5],[1,0.5]];portConstraint=eastwest;top=0;left=0;right=0;bottom=0;swimlaneLine=1;fillColor=#76608a;fontColor=#ffffff;strokeColor=#432D57;" parent="xMz_KbfSaYniYS-BvoWz-47" vertex="1">
          <mxGeometry y="150" width="180" height="30" as="geometry" />
        </mxCell>
        <mxCell id="xMz_KbfSaYniYS-BvoWz-61" value="" style="shape=partialRectangle;connectable=0;top=0;left=0;bottom=0;right=0;editable=1;overflow=hidden;whiteSpace=wrap;html=1;swimlaneLine=1;fillColor=#76608a;fontColor=#ffffff;strokeColor=#432D57;" parent="xMz_KbfSaYniYS-BvoWz-60" vertex="1">
          <mxGeometry width="30" height="30" as="geometry">
            <mxRectangle width="30" height="30" as="alternateBounds" />
          </mxGeometry>
        </mxCell>
        <mxCell id="xMz_KbfSaYniYS-BvoWz-62" value="sucess - bool" style="shape=partialRectangle;connectable=0;top=0;left=0;bottom=0;right=0;align=left;spacingLeft=6;overflow=hidden;whiteSpace=wrap;html=1;swimlaneLine=1;fillColor=#76608a;fontColor=#ffffff;strokeColor=#432D57;" parent="xMz_KbfSaYniYS-BvoWz-60" vertex="1">
          <mxGeometry x="30" width="150" height="30" as="geometry">
            <mxRectangle width="150" height="30" as="alternateBounds" />
          </mxGeometry>
        </mxCell>
        <mxCell id="xMz_KbfSaYniYS-BvoWz-63" value="" style="shape=tableRow;horizontal=0;startSize=0;swimlaneHead=0;swimlaneBody=0;collapsible=0;dropTarget=0;points=[[0,0.5],[1,0.5]];portConstraint=eastwest;top=0;left=0;right=0;bottom=0;swimlaneLine=1;fillColor=#76608a;fontColor=#ffffff;strokeColor=#432D57;" parent="xMz_KbfSaYniYS-BvoWz-47" vertex="1">
          <mxGeometry y="180" width="180" height="30" as="geometry" />
        </mxCell>
        <mxCell id="xMz_KbfSaYniYS-BvoWz-64" value="" style="shape=partialRectangle;connectable=0;top=0;left=0;bottom=0;right=0;editable=1;overflow=hidden;whiteSpace=wrap;html=1;swimlaneLine=1;fillColor=#76608a;fontColor=#ffffff;strokeColor=#432D57;" parent="xMz_KbfSaYniYS-BvoWz-63" vertex="1">
          <mxGeometry width="30" height="30" as="geometry">
            <mxRectangle width="30" height="30" as="alternateBounds" />
          </mxGeometry>
        </mxCell>
        <mxCell id="xMz_KbfSaYniYS-BvoWz-65" value="name - char" style="shape=partialRectangle;connectable=0;top=0;left=0;bottom=0;right=0;align=left;spacingLeft=6;overflow=hidden;whiteSpace=wrap;html=1;swimlaneLine=1;fillColor=#76608a;fontColor=#ffffff;strokeColor=#432D57;" parent="xMz_KbfSaYniYS-BvoWz-63" vertex="1">
          <mxGeometry x="30" width="150" height="30" as="geometry">
            <mxRectangle width="150" height="30" as="alternateBounds" />
          </mxGeometry>
        </mxCell>
        <mxCell id="7q4QDU65tGDHRg2ktiR--13" value="" style="shape=tableRow;horizontal=0;startSize=0;swimlaneHead=0;swimlaneBody=0;collapsible=0;dropTarget=0;points=[[0,0.5],[1,0.5]];portConstraint=eastwest;top=0;left=0;right=0;bottom=0;swimlaneLine=1;fillColor=#76608a;fontColor=#ffffff;strokeColor=#432D57;" parent="xMz_KbfSaYniYS-BvoWz-47" vertex="1">
          <mxGeometry y="210" width="180" height="30" as="geometry" />
        </mxCell>
        <mxCell id="7q4QDU65tGDHRg2ktiR--14" value="" style="shape=partialRectangle;connectable=0;top=0;left=0;bottom=0;right=0;editable=1;overflow=hidden;whiteSpace=wrap;html=1;swimlaneLine=1;fillColor=#76608a;fontColor=#ffffff;strokeColor=#432D57;" parent="7q4QDU65tGDHRg2ktiR--13" vertex="1">
          <mxGeometry width="30" height="30" as="geometry">
            <mxRectangle width="30" height="30" as="alternateBounds" />
          </mxGeometry>
        </mxCell>
        <mxCell id="7q4QDU65tGDHRg2ktiR--15" value="description - text" style="shape=partialRectangle;connectable=0;top=0;left=0;bottom=0;right=0;align=left;spacingLeft=6;overflow=hidden;whiteSpace=wrap;html=1;swimlaneLine=1;fillColor=#76608a;fontColor=#ffffff;strokeColor=#432D57;" parent="7q4QDU65tGDHRg2ktiR--13" vertex="1">
          <mxGeometry x="30" width="150" height="30" as="geometry">
            <mxRectangle width="150" height="30" as="alternateBounds" />
          </mxGeometry>
        </mxCell>
        <mxCell id="xMz_KbfSaYniYS-BvoWz-69" value="" style="shape=tableRow;horizontal=0;startSize=0;swimlaneHead=0;swimlaneBody=0;collapsible=0;dropTarget=0;points=[[0,0.5],[1,0.5]];portConstraint=eastwest;top=0;left=0;right=0;bottom=0;swimlaneLine=1;fillColor=#76608a;fontColor=#ffffff;strokeColor=#432D57;" parent="xMz_KbfSaYniYS-BvoWz-47" vertex="1">
          <mxGeometry y="240" width="180" height="30" as="geometry" />
        </mxCell>
        <mxCell id="xMz_KbfSaYniYS-BvoWz-70" value="" style="shape=partialRectangle;connectable=0;top=0;left=0;bottom=0;right=0;editable=1;overflow=hidden;whiteSpace=wrap;html=1;swimlaneLine=1;fillColor=#76608a;fontColor=#ffffff;strokeColor=#432D57;" parent="xMz_KbfSaYniYS-BvoWz-69" vertex="1">
          <mxGeometry width="30" height="30" as="geometry">
            <mxRectangle width="30" height="30" as="alternateBounds" />
          </mxGeometry>
        </mxCell>
        <mxCell id="xMz_KbfSaYniYS-BvoWz-71" value="created_by - char" style="shape=partialRectangle;connectable=0;top=0;left=0;bottom=0;right=0;align=left;spacingLeft=6;overflow=hidden;whiteSpace=wrap;html=1;swimlaneLine=1;fillColor=#76608a;fontColor=#ffffff;strokeColor=#432D57;" parent="xMz_KbfSaYniYS-BvoWz-69" vertex="1">
          <mxGeometry x="30" width="150" height="30" as="geometry">
            <mxRectangle width="150" height="30" as="alternateBounds" />
          </mxGeometry>
        </mxCell>
      </root>
    </mxGraphModel>
  </diagram>
  <diagram id="-rRGMfGgGNbfCA9vVYWV" name="Use case">
    <mxGraphModel dx="1195" dy="733" grid="1" gridSize="10" guides="1" tooltips="1" connect="1" arrows="1" fold="1" page="1" pageScale="1" pageWidth="850" pageHeight="1100" math="0" shadow="0">
      <root>
        <mxCell id="0" />
        <mxCell id="1" parent="0" />
        <mxCell id="bxc_msna3pfh4-U9Am64-1" value="&lt;span style=&quot;font-weight: 700;&quot;&gt;DRF Audit Trail - Use Case&lt;/span&gt;" style="shape=umlFrame;whiteSpace=wrap;html=1;pointerEvents=0;recursiveResize=0;container=1;collapsible=0;width=180;fillColor=#76608a;strokeColor=#432D57;height=30;fontColor=#ffffff;" parent="1" vertex="1">
          <mxGeometry x="250" y="340" width="340" height="500" as="geometry" />
        </mxCell>
        <mxCell id="h4PChb8osC4VRtsBddRx-4" value="Create request audit event" style="ellipse;whiteSpace=wrap;html=1;fillColor=#76608a;fontColor=#ffffff;strokeColor=#432D57;" parent="bxc_msna3pfh4-U9Am64-1" vertex="1">
          <mxGeometry x="30" y="60" width="140" height="70" as="geometry" />
        </mxCell>
        <mxCell id="h4PChb8osC4VRtsBddRx-5" value="Create login audit event" style="ellipse;whiteSpace=wrap;html=1;fillColor=#76608a;fontColor=#ffffff;strokeColor=#432D57;" parent="bxc_msna3pfh4-U9Am64-1" vertex="1">
          <mxGeometry x="35" y="170" width="140" height="70" as="geometry" />
        </mxCell>
        <mxCell id="h4PChb8osC4VRtsBddRx-1" value="Application" style="shape=umlActor;verticalLabelPosition=bottom;verticalAlign=top;html=1;fillColor=#76608a;fontColor=#ffffff;strokeColor=#432D57;" parent="1" vertex="1">
          <mxGeometry x="150" y="530" width="30" height="60" as="geometry" />
        </mxCell>
        <mxCell id="h4PChb8osC4VRtsBddRx-6" style="edgeStyle=orthogonalEdgeStyle;rounded=0;orthogonalLoop=1;jettySize=auto;html=1;fillColor=#76608a;strokeColor=#432D57;" parent="1" source="h4PChb8osC4VRtsBddRx-4" target="h4PChb8osC4VRtsBddRx-1" edge="1">
          <mxGeometry relative="1" as="geometry" />
        </mxCell>
        <mxCell id="xtVnCJYIl2_krTlLql-_-1" style="edgeStyle=orthogonalEdgeStyle;rounded=0;orthogonalLoop=1;jettySize=auto;html=1;entryX=0.001;entryY=0.541;entryDx=0;entryDy=0;entryPerimeter=0;" edge="1" parent="1" source="h4PChb8osC4VRtsBddRx-1" target="h4PChb8osC4VRtsBddRx-5">
          <mxGeometry relative="1" as="geometry" />
        </mxCell>
      </root>
    </mxGraphModel>
  </diagram>
  <diagram id="TzVK3I9hvFpF7dlPTf0L" name="Flow">
    <mxGraphModel dx="2224" dy="1943" grid="1" gridSize="10" guides="1" tooltips="1" connect="1" arrows="1" fold="1" page="1" pageScale="1" pageWidth="850" pageHeight="1100" math="0" shadow="0">
      <root>
        <mxCell id="0" />
        <mxCell id="1" parent="0" />
        <mxCell id="Qi8loJO_1SxnnOb0nR-O-1" value="&lt;b&gt;DRF Audit Trail - Flow&lt;/b&gt;" style="shape=umlFrame;whiteSpace=wrap;html=1;pointerEvents=0;recursiveResize=0;container=1;collapsible=0;width=160;fillColor=#76608a;strokeColor=#432D57;fontColor=#ffffff;" parent="1" vertex="1">
          <mxGeometry x="-740" y="-980" width="570" height="840" as="geometry" />
        </mxCell>
        <mxCell id="Qi8loJO_1SxnnOb0nR-O-60" style="edgeStyle=orthogonalEdgeStyle;rounded=0;orthogonalLoop=1;jettySize=auto;html=1;entryX=0.5;entryY=0;entryDx=0;entryDy=0;startArrow=classic;startFill=1;fillColor=#76608a;strokeColor=#432D57;" parent="Qi8loJO_1SxnnOb0nR-O-1" source="Qi8loJO_1SxnnOb0nR-O-16" target="Qi8loJO_1SxnnOb0nR-O-38" edge="1">
          <mxGeometry relative="1" as="geometry" />
        </mxCell>
        <mxCell id="Qi8loJO_1SxnnOb0nR-O-16" value="Internet | Client" style="ellipse;shape=cloud;whiteSpace=wrap;html=1;fillColor=#76608a;strokeColor=#432D57;fontColor=#ffffff;" parent="Qi8loJO_1SxnnOb0nR-O-1" vertex="1">
          <mxGeometry x="127.5" y="37" width="165" height="73" as="geometry" />
        </mxCell>
        <mxCell id="Qi8loJO_1SxnnOb0nR-O-22" value="Django application" style="swimlane;whiteSpace=wrap;html=1;fillColor=#76608a;strokeColor=#432D57;fontColor=#ffffff;" parent="Qi8loJO_1SxnnOb0nR-O-1" vertex="1">
          <mxGeometry x="30" y="290" width="360" height="530" as="geometry" />
        </mxCell>
        <mxCell id="Qi8loJO_1SxnnOb0nR-O-24" value="&lt;font style=&quot;font-size: 8px;&quot;&gt;Request&lt;/font&gt;" style="html=1;shadow=0;dashed=0;align=center;verticalAlign=middle;shape=mxgraph.arrows2.arrow;dy=0.6;dx=40;direction=south;notch=0;fillColor=#76608a;strokeColor=#432D57;fontColor=#ffffff;" parent="Qi8loJO_1SxnnOb0nR-O-22" vertex="1">
          <mxGeometry x="55" y="35" width="70" height="70" as="geometry" />
        </mxCell>
        <mxCell id="Qi8loJO_1SxnnOb0nR-O-30" value="Middlewares" style="swimlane;whiteSpace=wrap;html=1;fillColor=#76608a;strokeColor=#432D57;fontColor=#ffffff;" parent="Qi8loJO_1SxnnOb0nR-O-22" vertex="1">
          <mxGeometry x="15" y="125" width="325" height="270" as="geometry" />
        </mxCell>
        <mxCell id="Qi8loJO_1SxnnOb0nR-O-32" value="SecurityMiddleware" style="rounded=1;whiteSpace=wrap;html=1;fillColor=#76608a;strokeColor=#432D57;fontColor=#ffffff;" parent="Qi8loJO_1SxnnOb0nR-O-30" vertex="1">
          <mxGeometry x="12.5" y="37" width="300" height="30" as="geometry" />
        </mxCell>
        <mxCell id="Qi8loJO_1SxnnOb0nR-O-33" value="SessionMiddleware" style="rounded=1;whiteSpace=wrap;html=1;fillColor=#76608a;strokeColor=#432D57;fontColor=#ffffff;" parent="Qi8loJO_1SxnnOb0nR-O-30" vertex="1">
          <mxGeometry x="13" y="83" width="300" height="30" as="geometry" />
        </mxCell>
        <mxCell id="Qi8loJO_1SxnnOb0nR-O-34" value="CommonMiddleware" style="rounded=1;whiteSpace=wrap;html=1;fillColor=#76608a;strokeColor=#432D57;fontColor=#ffffff;" parent="Qi8loJO_1SxnnOb0nR-O-30" vertex="1">
          <mxGeometry x="13" y="130" width="300" height="30" as="geometry" />
        </mxCell>
        <mxCell id="Qi8loJO_1SxnnOb0nR-O-35" value="More Middlwares Here ..." style="rounded=1;whiteSpace=wrap;html=1;fillColor=#76608a;strokeColor=#432D57;fontColor=#ffffff;" parent="Qi8loJO_1SxnnOb0nR-O-30" vertex="1">
          <mxGeometry x="13" y="179" width="300" height="30" as="geometry" />
        </mxCell>
        <mxCell id="Qi8loJO_1SxnnOb0nR-O-36" value="RequestLoginAuditEventMiddleware" style="rounded=1;whiteSpace=wrap;html=1;fillColor=#76608a;strokeColor=#432D57;fontColor=#ffffff;" parent="Qi8loJO_1SxnnOb0nR-O-30" vertex="1">
          <mxGeometry x="13" y="226" width="300" height="30" as="geometry" />
        </mxCell>
        <mxCell id="Qi8loJO_1SxnnOb0nR-O-53" value="View" style="whiteSpace=wrap;html=1;fillColor=#76608a;strokeColor=#432D57;fontColor=#ffffff;" parent="Qi8loJO_1SxnnOb0nR-O-22" vertex="1">
          <mxGeometry x="14.68" y="475" width="325" height="30" as="geometry" />
        </mxCell>
        <mxCell id="Qi8loJO_1SxnnOb0nR-O-55" value="Response" style="html=1;shadow=0;dashed=0;align=center;verticalAlign=middle;shape=mxgraph.arrows2.arrow;dy=0.6;dx=40;direction=north;notch=0;fillColor=#76608a;strokeColor=#432D57;fontSize=8;fontColor=#ffffff;" parent="Qi8loJO_1SxnnOb0nR-O-22" vertex="1">
          <mxGeometry x="240" y="35" width="70" height="70" as="geometry" />
        </mxCell>
        <mxCell id="Qi8loJO_1SxnnOb0nR-O-56" value="" style="html=1;shadow=0;dashed=0;align=center;verticalAlign=middle;shape=mxgraph.arrows2.twoWayArrow;dy=0.65;dx=22;rotation=90;fillColor=#76608a;strokeColor=#432D57;fontColor=#ffffff;" parent="Qi8loJO_1SxnnOb0nR-O-22" vertex="1">
          <mxGeometry x="145" y="419" width="64.37" height="32.5" as="geometry" />
        </mxCell>
        <mxCell id="Qi8loJO_1SxnnOb0nR-O-58" style="edgeStyle=orthogonalEdgeStyle;rounded=0;orthogonalLoop=1;jettySize=auto;html=1;entryX=0.5;entryY=0;entryDx=0;entryDy=0;startArrow=classic;startFill=1;jumpStyle=none;shadow=0;targetPerimeterSpacing=0;curved=0;fillColor=#76608a;strokeColor=#432D57;" parent="Qi8loJO_1SxnnOb0nR-O-1" source="Qi8loJO_1SxnnOb0nR-O-38" target="Qi8loJO_1SxnnOb0nR-O-42" edge="1">
          <mxGeometry relative="1" as="geometry" />
        </mxCell>
        <mxCell id="Qi8loJO_1SxnnOb0nR-O-38" value="Web Server" style="whiteSpace=wrap;html=1;fillColor=#76608a;strokeColor=#432D57;fontColor=#ffffff;" parent="Qi8loJO_1SxnnOb0nR-O-1" vertex="1">
          <mxGeometry x="30" y="170" width="360" height="30" as="geometry" />
        </mxCell>
        <mxCell id="Qi8loJO_1SxnnOb0nR-O-59" style="edgeStyle=orthogonalEdgeStyle;rounded=0;orthogonalLoop=1;jettySize=auto;html=1;entryX=0.5;entryY=0;entryDx=0;entryDy=0;startArrow=classic;startFill=1;fillColor=#76608a;strokeColor=#432D57;" parent="Qi8loJO_1SxnnOb0nR-O-1" source="Qi8loJO_1SxnnOb0nR-O-42" target="Qi8loJO_1SxnnOb0nR-O-22" edge="1">
          <mxGeometry relative="1" as="geometry" />
        </mxCell>
        <mxCell id="Qi8loJO_1SxnnOb0nR-O-42" value="WSGI or ASGI" style="whiteSpace=wrap;html=1;fillColor=#76608a;strokeColor=#432D57;fontColor=#ffffff;" parent="Qi8loJO_1SxnnOb0nR-O-1" vertex="1">
          <mxGeometry x="30" y="230" width="360" height="30" as="geometry" />
        </mxCell>
        <mxCell id="Mwi-tPaYocH2PTpENdg4-1" value="&lt;b&gt;&amp;nbsp;RequestAuditEvent&lt;/b&gt;&amp;nbsp;&lt;div&gt;&lt;span style=&quot;background-color: initial;&quot;&gt;and&lt;/span&gt;&lt;div&gt;&lt;span style=&quot;background-color: initial;&quot;&gt;&lt;b&gt;LoginAuditEvent&lt;/b&gt;&amp;nbsp;&lt;/span&gt;&lt;/div&gt;&lt;div&gt;&lt;div&gt;are created here&lt;/div&gt;&lt;/div&gt;&lt;/div&gt;" style="shape=note;whiteSpace=wrap;html=1;backgroundOutline=1;darkOpacity=0.05;fillColor=#76608a;strokeColor=#432D57;fontColor=#ffffff;" parent="Qi8loJO_1SxnnOb0nR-O-1" vertex="1">
          <mxGeometry x="410" y="550" width="130" height="140" as="geometry" />
        </mxCell>
        <mxCell id="Mwi-tPaYocH2PTpENdg4-2" value="" style="endArrow=none;dashed=1;html=1;rounded=0;exitX=1;exitY=0.5;exitDx=0;exitDy=0;entryX=0;entryY=0.5;entryDx=0;entryDy=0;entryPerimeter=0;fillColor=#76608a;strokeColor=#432D57;" parent="Qi8loJO_1SxnnOb0nR-O-1" source="Qi8loJO_1SxnnOb0nR-O-36" target="Mwi-tPaYocH2PTpENdg4-1" edge="1">
          <mxGeometry width="50" height="50" relative="1" as="geometry">
            <mxPoint x="360" y="630" as="sourcePoint" />
            <mxPoint x="410" y="580" as="targetPoint" />
          </mxGeometry>
        </mxCell>
      </root>
    </mxGraphModel>
  </diagram>
  <diagram id="_T3myKxGhLDHE2J3bzrT" name="Page-5">
    <mxGraphModel dx="1995" dy="1803" grid="1" gridSize="10" guides="1" tooltips="1" connect="1" arrows="1" fold="1" page="1" pageScale="1" pageWidth="850" pageHeight="1100" math="0" shadow="0">
      <root>
        <mxCell id="0" />
        <mxCell id="1" parent="0" />
        <mxCell id="dk2Kto5dMhey9u4Gk_X8-7" value="" style="edgeStyle=orthogonalEdgeStyle;rounded=0;orthogonalLoop=1;jettySize=auto;html=1;" parent="1" source="dk2Kto5dMhey9u4Gk_X8-8" target="dk2Kto5dMhey9u4Gk_X8-10" edge="1">
          <mxGeometry relative="1" as="geometry" />
        </mxCell>
        <mxCell id="dk2Kto5dMhey9u4Gk_X8-8" value="Start" style="strokeWidth=2;html=1;shape=mxgraph.flowchart.terminator;whiteSpace=wrap;" parent="1" vertex="1">
          <mxGeometry x="-120" y="-870" width="100" height="60" as="geometry" />
        </mxCell>
        <mxCell id="dk2Kto5dMhey9u4Gk_X8-9" value="" style="edgeStyle=orthogonalEdgeStyle;rounded=0;orthogonalLoop=1;jettySize=auto;html=1;" parent="1" source="dk2Kto5dMhey9u4Gk_X8-10" edge="1">
          <mxGeometry relative="1" as="geometry">
            <mxPoint x="-70.00000000000023" y="-560" as="targetPoint" />
          </mxGeometry>
        </mxCell>
        <mxCell id="dk2Kto5dMhey9u4Gk_X8-10" value="process request" style="rounded=1;whiteSpace=wrap;html=1;absoluteArcSize=1;arcSize=14;strokeWidth=2;" parent="1" vertex="1">
          <mxGeometry x="-120" y="-740" width="100" height="100" as="geometry" />
        </mxCell>
        <mxCell id="dk2Kto5dMhey9u4Gk_X8-11" value="" style="edgeStyle=orthogonalEdgeStyle;rounded=0;orthogonalLoop=1;jettySize=auto;html=1;" parent="1" source="dk2Kto5dMhey9u4Gk_X8-12" target="dk2Kto5dMhey9u4Gk_X8-17" edge="1">
          <mxGeometry relative="1" as="geometry" />
        </mxCell>
        <mxCell id="dk2Kto5dMhey9u4Gk_X8-12" value="process response" style="rounded=1;whiteSpace=wrap;html=1;absoluteArcSize=1;arcSize=14;strokeWidth=2;" parent="1" vertex="1">
          <mxGeometry x="-130" y="-560" width="120" height="100" as="geometry" />
        </mxCell>
        <mxCell id="dk2Kto5dMhey9u4Gk_X8-13" value="" style="edgeStyle=orthogonalEdgeStyle;rounded=0;orthogonalLoop=1;jettySize=auto;html=1;" parent="1" source="dk2Kto5dMhey9u4Gk_X8-17" target="dk2Kto5dMhey9u4Gk_X8-20" edge="1">
          <mxGeometry relative="1" as="geometry" />
        </mxCell>
        <mxCell id="dk2Kto5dMhey9u4Gk_X8-14" value="Yes" style="edgeLabel;html=1;align=center;verticalAlign=middle;resizable=0;points=[];" parent="dk2Kto5dMhey9u4Gk_X8-13" vertex="1" connectable="0">
          <mxGeometry x="-0.1469" y="1" relative="1" as="geometry">
            <mxPoint as="offset" />
          </mxGeometry>
        </mxCell>
        <mxCell id="dk2Kto5dMhey9u4Gk_X8-15" style="edgeStyle=orthogonalEdgeStyle;rounded=0;orthogonalLoop=1;jettySize=auto;html=1;" parent="1" source="dk2Kto5dMhey9u4Gk_X8-17" target="dk2Kto5dMhey9u4Gk_X8-21" edge="1">
          <mxGeometry relative="1" as="geometry" />
        </mxCell>
        <mxCell id="dk2Kto5dMhey9u4Gk_X8-16" value="No" style="edgeLabel;html=1;align=center;verticalAlign=middle;resizable=0;points=[];" parent="dk2Kto5dMhey9u4Gk_X8-15" vertex="1" connectable="0">
          <mxGeometry x="0.4456" y="1" relative="1" as="geometry">
            <mxPoint as="offset" />
          </mxGeometry>
        </mxCell>
        <mxCell id="dk2Kto5dMhey9u4Gk_X8-17" value="" style="rhombus;whiteSpace=wrap;html=1;rounded=1;arcSize=14;strokeWidth=2;" parent="1" vertex="1">
          <mxGeometry x="-110" y="-370" width="80" height="80" as="geometry" />
        </mxCell>
        <mxCell id="dk2Kto5dMhey9u4Gk_X8-18" value="If request audit event enabled" style="text;html=1;align=center;verticalAlign=middle;resizable=0;points=[];autosize=1;strokeColor=none;fillColor=none;" parent="1" vertex="1">
          <mxGeometry x="-25" y="-345" width="180" height="30" as="geometry" />
        </mxCell>
        <mxCell id="dk2Kto5dMhey9u4Gk_X8-19" value="" style="edgeStyle=orthogonalEdgeStyle;rounded=0;orthogonalLoop=1;jettySize=auto;html=1;" parent="1" source="dk2Kto5dMhey9u4Gk_X8-20" target="dk2Kto5dMhey9u4Gk_X8-23" edge="1">
          <mxGeometry relative="1" as="geometry" />
        </mxCell>
        <mxCell id="dk2Kto5dMhey9u4Gk_X8-20" value="Create request event" style="rounded=1;whiteSpace=wrap;html=1;absoluteArcSize=1;arcSize=14;strokeWidth=2;" parent="1" vertex="1">
          <mxGeometry x="-140" y="-220" width="140" height="100" as="geometry" />
        </mxCell>
        <mxCell id="dk2Kto5dMhey9u4Gk_X8-21" value="End" style="strokeWidth=2;html=1;shape=mxgraph.flowchart.terminator;whiteSpace=wrap;" parent="1" vertex="1">
          <mxGeometry x="-300" y="-20" width="100" height="60" as="geometry" />
        </mxCell>
        <mxCell id="dk2Kto5dMhey9u4Gk_X8-22" value="" style="edgeStyle=orthogonalEdgeStyle;rounded=0;orthogonalLoop=1;jettySize=auto;html=1;" parent="1" source="dk2Kto5dMhey9u4Gk_X8-23" target="dk2Kto5dMhey9u4Gk_X8-26" edge="1">
          <mxGeometry relative="1" as="geometry" />
        </mxCell>
        <mxCell id="dk2Kto5dMhey9u4Gk_X8-23" value="" style="rhombus;whiteSpace=wrap;html=1;rounded=1;arcSize=14;strokeWidth=2;" parent="1" vertex="1">
          <mxGeometry x="-110" y="-30" width="80" height="80" as="geometry" />
        </mxCell>
        <mxCell id="dk2Kto5dMhey9u4Gk_X8-24" value="If request url if auth" style="text;html=1;align=center;verticalAlign=middle;resizable=0;points=[];autosize=1;strokeColor=none;fillColor=none;" parent="1" vertex="1">
          <mxGeometry y="-20" width="130" height="30" as="geometry" />
        </mxCell>
        <mxCell id="dk2Kto5dMhey9u4Gk_X8-25" style="edgeStyle=orthogonalEdgeStyle;rounded=0;orthogonalLoop=1;jettySize=auto;html=1;" parent="1" source="dk2Kto5dMhey9u4Gk_X8-26" target="dk2Kto5dMhey9u4Gk_X8-21" edge="1">
          <mxGeometry relative="1" as="geometry" />
        </mxCell>
        <mxCell id="dk2Kto5dMhey9u4Gk_X8-26" value="Create login event" style="rounded=1;whiteSpace=wrap;html=1;absoluteArcSize=1;arcSize=14;strokeWidth=2;" parent="1" vertex="1">
          <mxGeometry x="-140" y="130" width="140" height="100" as="geometry" />
        </mxCell>
        <mxCell id="dk2Kto5dMhey9u4Gk_X8-27" style="edgeStyle=orthogonalEdgeStyle;rounded=0;orthogonalLoop=1;jettySize=auto;html=1;entryX=1;entryY=0.5;entryDx=0;entryDy=0;entryPerimeter=0;" parent="1" source="dk2Kto5dMhey9u4Gk_X8-23" target="dk2Kto5dMhey9u4Gk_X8-21" edge="1">
          <mxGeometry relative="1" as="geometry" />
        </mxCell>
        <mxCell id="dk2Kto5dMhey9u4Gk_X8-28" value="No" style="edgeLabel;html=1;align=center;verticalAlign=middle;resizable=0;points=[];" parent="dk2Kto5dMhey9u4Gk_X8-27" vertex="1" connectable="0">
          <mxGeometry x="-0.0323" y="-2" relative="1" as="geometry">
            <mxPoint as="offset" />
          </mxGeometry>
        </mxCell>
        <mxCell id="RN5EB8eAp4yYyIfsEdPM-3" style="edgeStyle=orthogonalEdgeStyle;rounded=0;orthogonalLoop=1;jettySize=auto;html=1;entryX=0.5;entryY=0;entryDx=0;entryDy=0;" edge="1" parent="1" source="RN5EB8eAp4yYyIfsEdPM-1" target="RN5EB8eAp4yYyIfsEdPM-2">
          <mxGeometry relative="1" as="geometry" />
        </mxCell>
        <mxCell id="RN5EB8eAp4yYyIfsEdPM-5" style="edgeStyle=orthogonalEdgeStyle;rounded=0;orthogonalLoop=1;jettySize=auto;html=1;" edge="1" parent="1" source="RN5EB8eAp4yYyIfsEdPM-1" target="RN5EB8eAp4yYyIfsEdPM-4">
          <mxGeometry relative="1" as="geometry" />
        </mxCell>
        <mxCell id="RN5EB8eAp4yYyIfsEdPM-1" value="Pgaudit níveis de auditoria" style="rounded=0;whiteSpace=wrap;html=1;" vertex="1" parent="1">
          <mxGeometry x="785" y="-860" width="120" height="60" as="geometry" />
        </mxCell>
        <mxCell id="RN5EB8eAp4yYyIfsEdPM-9" style="edgeStyle=orthogonalEdgeStyle;rounded=0;orthogonalLoop=1;jettySize=auto;html=1;" edge="1" parent="1" source="RN5EB8eAp4yYyIfsEdPM-2" target="RN5EB8eAp4yYyIfsEdPM-8">
          <mxGeometry relative="1" as="geometry" />
        </mxCell>
        <mxCell id="RN5EB8eAp4yYyIfsEdPM-10" style="edgeStyle=orthogonalEdgeStyle;rounded=0;orthogonalLoop=1;jettySize=auto;html=1;" edge="1" parent="1" source="RN5EB8eAp4yYyIfsEdPM-2" target="RN5EB8eAp4yYyIfsEdPM-7">
          <mxGeometry relative="1" as="geometry" />
        </mxCell>
        <mxCell id="RN5EB8eAp4yYyIfsEdPM-11" style="edgeStyle=orthogonalEdgeStyle;rounded=0;orthogonalLoop=1;jettySize=auto;html=1;" edge="1" parent="1" source="RN5EB8eAp4yYyIfsEdPM-2" target="RN5EB8eAp4yYyIfsEdPM-6">
          <mxGeometry relative="1" as="geometry" />
        </mxCell>
        <mxCell id="RN5EB8eAp4yYyIfsEdPM-2" value="Nível de sessão" style="rounded=0;whiteSpace=wrap;html=1;" vertex="1" parent="1">
          <mxGeometry x="590" y="-750" width="120" height="60" as="geometry" />
        </mxCell>
        <mxCell id="RN5EB8eAp4yYyIfsEdPM-16" style="edgeStyle=orthogonalEdgeStyle;rounded=0;orthogonalLoop=1;jettySize=auto;html=1;" edge="1" parent="1" source="RN5EB8eAp4yYyIfsEdPM-4" target="RN5EB8eAp4yYyIfsEdPM-13">
          <mxGeometry relative="1" as="geometry" />
        </mxCell>
        <mxCell id="RN5EB8eAp4yYyIfsEdPM-17" style="edgeStyle=orthogonalEdgeStyle;rounded=0;orthogonalLoop=1;jettySize=auto;html=1;entryX=0.5;entryY=0;entryDx=0;entryDy=0;" edge="1" parent="1" source="RN5EB8eAp4yYyIfsEdPM-4" target="RN5EB8eAp4yYyIfsEdPM-12">
          <mxGeometry relative="1" as="geometry" />
        </mxCell>
        <mxCell id="RN5EB8eAp4yYyIfsEdPM-18" style="edgeStyle=orthogonalEdgeStyle;rounded=0;orthogonalLoop=1;jettySize=auto;html=1;entryX=0.5;entryY=0;entryDx=0;entryDy=0;" edge="1" parent="1" source="RN5EB8eAp4yYyIfsEdPM-4" target="RN5EB8eAp4yYyIfsEdPM-14">
          <mxGeometry relative="1" as="geometry" />
        </mxCell>
        <mxCell id="RN5EB8eAp4yYyIfsEdPM-4" value="Nível de objeto" style="rounded=0;whiteSpace=wrap;html=1;" vertex="1" parent="1">
          <mxGeometry x="1035" y="-750" width="120" height="60" as="geometry" />
        </mxCell>
        <mxCell id="RN5EB8eAp4yYyIfsEdPM-6" value="Rastreia todas as operações SQL em uma sessão" style="rounded=0;whiteSpace=wrap;html=1;" vertex="1" parent="1">
          <mxGeometry x="440" y="-620" width="120" height="60" as="geometry" />
        </mxCell>
        <mxCell id="RN5EB8eAp4yYyIfsEdPM-7" value="Logs de usuário, tempo, e detalhes da sessão" style="rounded=0;whiteSpace=wrap;html=1;" vertex="1" parent="1">
          <mxGeometry x="740" y="-620" width="120" height="60" as="geometry" />
        </mxCell>
        <mxCell id="RN5EB8eAp4yYyIfsEdPM-8" value="Registra ações como SELECT, INSERT, UPDATE, DELETE" style="rounded=0;whiteSpace=wrap;html=1;" vertex="1" parent="1">
          <mxGeometry x="590" y="-620" width="120" height="60" as="geometry" />
        </mxCell>
        <mxCell id="RN5EB8eAp4yYyIfsEdPM-12" value="Monitora objetos de banco de dados específicos" style="rounded=0;whiteSpace=wrap;html=1;" vertex="1" parent="1">
          <mxGeometry x="880" y="-620" width="120" height="60" as="geometry" />
        </mxCell>
        <mxCell id="RN5EB8eAp4yYyIfsEdPM-13" value="Audita operações em tabelas, índices ou visualizações" style="rounded=0;whiteSpace=wrap;html=1;" vertex="1" parent="1">
          <mxGeometry x="1035" y="-620" width="120" height="60" as="geometry" />
        </mxCell>
        <mxCell id="RN5EB8eAp4yYyIfsEdPM-14" value="Rastreia alterações sensíveis como CREATE, ALTER, DROP" style="rounded=0;whiteSpace=wrap;html=1;" vertex="1" parent="1">
          <mxGeometry x="1190" y="-620" width="120" height="60" as="geometry" />
        </mxCell>
      </root>
    </mxGraphModel>
  </diagram>
</mxfile>
